<svg xmlns="http://www.w3.org/2000/svg" viewBox="0 0 286.19 53.97"><defs><style>.cls-1{fill:#7cb639;}</style></defs><title>math-elec</title><g id="レイヤー_2" data-name="レイヤー 2"><g id="レイヤー_1-2" data-name="レイヤー 1"><path class="cls-1" d="M67.8,21.59V18.54h4.88v-6.1h5.5v6.1h4.88v3.05h-2.9l2.9,2.75v4.58l-4.88-4.63v4.63H75.64l-.26,1.22h7.68v3H81.84v5.24l1.22.26v3.05l-1.27-.26c-.3,2.61-1.92,3.92-4.83,3.92H69v-3h5.29a1.62,1.62,0,0,0,1.83-1.83v-.16L67.8,38.69,69,33.19H67.8v-3h1.78l.66-3.05h2.44v-2.8L67.8,28.92V24.34l2.9-2.75Zm4.27-3.66H68.41l-.61-5.49h3.66Zm4.07,15.26H74.77L74,36.85l2.13.46Zm2.65-15.26.61-5.49h3.66l-.61,5.49ZM82.45,45.4,88,31.11l-1.28-2.8H83.06l.61-15.87h5.8l-.15,3.66H99.54v3H98.32l-4.58,12,6.41,14.29h-5.8l-3.3-7.32-2.8,7.32Zm7-23.81,1.12,2.55,1.93-5h-3.3l-.1,2.44Z"/><path class="cls-1" d="M102.31,25.87V17.93h29.91v7.94h-6.1V25l-4.28,6.41h11v3h-11.6V39.3c0,4.07-1.62,6.1-4.88,6.1h-4.27v-3a2.7,2.7,0,0,0,3-3.05V34.41H101.7v-3h13.43L118,27.09H106V25.87Zm1.83-8.55-1.83-4.88h5.49l1.84,4.88Zm22,3.66h-17.7V24h17.7Zm-11-3.66-1.83-4.88h5.49l1.83,4.88Zm15.26,0H124.9l1.83-4.88h5.49Z"/><path class="cls-1" d="M142.86,45.71q-4.67,0-4.66-5.19V30.68c0-3.46,1.55-5.18,4.66-5.18l-4.66-7.78h5.18l4.67,7.78h5.7v2.59h-7.26c-2.07,0-3.11.86-3.11,2.59v9.84c0,1.73,1,2.59,3.11,2.59h8.81v2.6Z"/><path class="cls-1" d="M160.17,16.1V13.05h28.69V16.1H177.57v1.22h12.51V27.7H184V20.37h-6.41V27.7h-6.1V20.37h-6.41V27.7H159V17.32h12.52V16.1Zm0,24.42v-12h28.69v12H177.57a1.62,1.62,0,0,0,1.83,1.83h10.68v3H176.35c-3.26,0-4.88-1.63-4.88-4.88Zm5.7-16.79V21.19h4.78v2.54Zm0,3.36V24.54h4.78v2.55Zm.41,6h5.19V31.56h-5.19Zm0,4.37h5.19V35.94h-5.19Zm16.48-5.9h-5.19v1.53h5.19Zm0,4.38h-5.19v1.52h5.19Zm-4.38-12.21V21.19h4.79v2.54Zm0,3.36V24.54h4.79v2.55Z"/><path class="cls-1" d="M193,23.42l2.44-11h6.06l-.41,1.83h23v3.05H200.41L199,23.42Zm0,22,7.53-9.11L196,33.19V27.75l7.33,5.08,4.27-5.13h6.62l-6.62,8,6.06,4.17v5.44l-9-6.16-5.08,6.21Zm1.83-18.31V24h26.81V38.69q0,3.66,3.66,3.66v3H220.4q-4.83,0-4.83-6.71V27.09Zm6.11-4.89V19.15H221V22.2Z"/><path class="cls-1" d="M242.21,45.71v-2.6c1.39,0,2.08-.86,2.08-2.59V23.94a2.29,2.29,0,0,0-2.59-2.59h-.52V45.71H233.4q-4.67,0-4.66-5.19V23.94q0-5.18,4.66-5.18h11.41q4.66,0,4.66,5.18V40.52q0,5.19-4.66,5.19ZM236,21.35c-1.39,0-2.08.86-2.08,2.59V40.52c0,1.73.69,2.59,2.08,2.59Z"/><path class="cls-1" d="M253.84,19.76V15.49l6.1-3.05,6.1,3.05v4.27l-6.1-3.05Zm.61,3v-3h11v3h-2.74v3.06h2.74v3.05h-2.74V41.43l2.74-.3v3l-11,1.22v-3l2.74-.31V28.92h-2.74V25.87h2.74V22.81Zm.61,18.32-.61-11h1.83l.61,11Zm9.76-.61H263l.61-10.38h1.83ZM266,45.4V24.65h1.22V13.05H285v11.6h1.22V40.52q0,4.88-4.89,4.88h-3.66v-3h1.22a1.62,1.62,0,0,0,1.83-1.83V27.7h-9.15V45.4Zm6.31-5.49V28.31h7.53v11.6ZM274,17.32h5.49V16.1h-6.71v8.55H274Zm1.73,14v5.49h.81V31.36Zm3.76-11h-1.22v4.28h1.22Z"/><path class="cls-1" d="M0,27A27,27,0,1,1,27,54,27,27,0,0,1,0,27ZM35.17,41.1a3.55,3.55,0,0,0,3.62-3.62,3.5,3.5,0,0,0-3.62-3.56H28.92l3.31-2.44c3.13-2.31,5.44-5.62,5.44-9.49,0-5.62-4.69-9.5-10.81-9.5C20.24,12.49,16,17.43,16,22a3.91,3.91,0,0,0,7.62,1.25c.63-1.88,1.13-2.94,2.81-2.94a2.34,2.34,0,0,1,2.5,2.56c0,1.75-.62,3.5-3.12,5.44l-8.5,6.62a3.54,3.54,0,0,0,2.38,6.18Z"/></g></g></svg>