<svg xmlns="http://www.w3.org/2000/svg" viewBox="0 0 608.06 103.45"><defs><style>.cls-1{fill:#06665d;}.cls-2{fill:#7cb639;}</style></defs><title>TOGETHER</title><g id="レイヤー_2" data-name="レイヤー 2"><g id="レイヤー_1-2" data-name="レイヤー 1"><path class="cls-1" d="M7.83,21.45l8,8H13.67l-8-8Zm4.21,0,5,4.89v2.17l-7-7.06Zm4.48,0,.54.68v2l-2.71-2.72Zm15.21,80.23-7.61-7.6h.68l8,8h-.13A2,2,0,0,1,31.73,101.68ZM29,94.08l8,8H34.85l-8-8Zm2.31,0h2l7.87,8H39.06Zm4.21,0h2l8,8h-2Zm3.66-.54a10.12,10.12,0,0,0,1.23-1l8.82,8.82a1.28,1.28,0,0,1-1,.68h-.54Zm2-2.31a3.46,3.46,0,0,0,.27-1.63v-.27l7.88,8v2.17Zm1-69.78,7.87,8h-.67V31l-7.88-8V21.45Zm7.2,13.71-7.88-8v-2L49.38,33Zm0,4.21L41.5,31.5v-2l7.88,7.87Zm0,4.34-7.88-8v-2l7.88,8Zm0,4.35-7.88-8V37.88l7.88,8Zm0,4.21L41.5,44.39V42.08l7.88,8Zm0,4.34-7.88-8v-2l7.88,7.74Zm0,4.21L41.5,53V50.77l7.88,8Zm0,4.34L41.5,57.29V55l7.88,8Zm0,4.35-7.88-8v-2l7.88,7.74Zm0,4.21-7.88-8v-2l7.88,8Zm0,4.2L41.5,70.19V67.88l7.88,8Zm0,4.48-7.88-8V72.22l7.88,7.88Zm0,4.21-7.88-8V76.43l7.88,8Zm0,4.21-7.88-8v-2l7.88,8Zm0,2.17v2L41.5,87.29V85.12Zm-3-71.54,8,8H52.09l-7.74-8Zm4.34,0,7.88,8h-2l-8-8Zm2,0h2.31l7.87,8H60.78Zm6.38-.14,8.14,8.15H65l-7.88-8h.41A6.42,6.42,0,0,0,59.15,21.31Zm2.31-2L70,27.83v.41a1.08,1.08,0,0,1-.68,1l-8.82-8.83A7.45,7.45,0,0,0,61.46,19.28Zm8.55-2-8-8V7.06l8,7.87Zm-8-6,8,8v2.17l-8-8Zm0,4.34,8,7.88v2.17l-8-8Z"/><path class="cls-1" d="M96.21,97.75a11.46,11.46,0,0,1-2.45-2L91.45,93.4a2.11,2.11,0,0,1,.55.14Zm8.14,3.93a13.59,13.59,0,0,1-3.26-1.22l-6.24-6.24c.81.13,1.63.4,2.58.54ZM97.56,30.55l8.15,8.14c0,.68-.14,1.36-.14,2l-8.14-8.15A10.6,10.6,0,0,1,97.56,30.55Zm-.13,4.34,7.87,7.87v2l-7.87-7.87Zm0,4.21,7.87,8v2l-7.87-7.87Zm0,4.21,7.87,8v2.17l-7.87-8Zm0,4.21,7.87,8V57.7l-7.87-7.88Zm0,4.48,7.87,7.73V62l-7.87-8Zm0,4.2,7.87,8v2l-7.87-7.87Zm7.87,14.39-7.6-7.73c-.14-.68-.14-1.5-.27-2.45l7.87,8ZM98.11,26.88l8.55,8.69a2.75,2.75,0,0,0-.41,1.49L97.7,28.51A4.11,4.11,0,0,1,98.11,26.88Zm.27,38.83,4.48,4.61A7.22,7.22,0,0,1,98.38,65.71Zm1.08-41.95,8.83,9.09c-.27,0-.27.14-.41.28a1.71,1.71,0,0,1-.54.81l-8.83-8.55A3.58,3.58,0,0,1,99.46,24Zm7.74,78.6L99.87,95a7.18,7.18,0,0,0,2.45.27l7.46,7.6C109,102.77,108,102.5,107.2,102.36Zm-5.29-80.23L110.6,31c-.55.14-.82.55-1.23.82l-9-9C101,22.67,101.23,22.26,101.91,22.13Zm10.18,8.14-8.42-8.68c.55,0,1.22-.14,1.9-.14l8.28,8.28C113.18,29.87,112.63,30.14,112.09,30.27Zm0,72.77-7.6-7.6h2.17l7.87,7.74A15.11,15.11,0,0,1,112.09,103Zm-2.17-81.45,6.65,6.65c0,.27.14.81.14,1.22h-.95l-8-8h.13A9.34,9.34,0,0,1,109.92,21.59Zm6.79,81.86-8-8h2l8.15,8h-2.17Zm4.2,0-8.14-8.15c.68,0,1.36-.27,2-.27l8.15,8.15C122.27,103.18,121.59,103.45,120.91,103.45ZM114,23.35c.54.27.81.82,1.22,1.36l-2-2A2.07,2.07,0,0,1,114,23.35Zm12.9,79.55c-.68,0-1.22.14-1.9.14l-8.28-8.28a4.86,4.86,0,0,0,1.9-.41Zm1.9-.4-8.55-8.42a4.19,4.19,0,0,0,1.76-.41l8.42,8.56C130,102.36,129.33,102.36,128.79,102.5Zm-3.53-9.91,8.55,8.55a4.52,4.52,0,0,1-1.63.54L123.63,93Zm2.85-1.36,8.82,8.82a3,3,0,0,0-1.49.68l-8.82-8.82A4.85,4.85,0,0,1,128.11,91.23Zm2.71-1.77,8.83,9a5.76,5.76,0,0,1-1.36.68l-8.82-8.82A3.63,3.63,0,0,0,130.82,89.46Zm2.31-1.9,8.83,9.1a4.54,4.54,0,0,0-1.09.81l-8.82-8.82C132.32,88.24,132.86,88,133.13,87.56Zm2-2,9.09,8.82a7.89,7.89,0,0,1-1.08,1.09l-9-8.83A3.41,3.41,0,0,0,135.17,85.53Zm1.9-2.45,8.82,8.83a10.86,10.86,0,0,0-.81,1.36l-8.83-9.1C136.53,83.9,136.8,83.35,137.07,83.08Zm1.49-3,8.69,8.82a2.14,2.14,0,0,1-.68,1.36l-8.82-8.55A9.15,9.15,0,0,0,138.56,80.1Zm1.09-3,8.69,8.42a13.72,13.72,0,0,0-.55,1.76l-8.68-8.69C139.24,78.06,139.51,77.65,139.65,77.11Zm.81-3.39L149,82a8.62,8.62,0,0,0-.41,1.9l-8.42-8.55A5.73,5.73,0,0,0,140.46,73.72Zm6-50.1a30.93,30.93,0,0,1,1.35,3.8l-6.92-7.06-.54-2.71Zm-5.3,46.16,8.15,8.28a9.35,9.35,0,0,0-.14,1.9l-8.28-8.14C141,71.14,141,70.46,141.14,69.78ZM149,32.85l-7.74-7.73a11.39,11.39,0,0,0-.14-2.31l7.33,7.33Zm-7.74,33,8,8v2l-8.15-8A10,10,0,0,0,141.28,65.84Zm7.87-30.68a10.65,10.65,0,0,1,.14,2.17l-8-7.87v-2Zm-7.87-3.53,8,8v2l-8-8Zm8,14.39-8-8V35.84l8,8Zm-8-6,8,8v2.17l-8-7.87Zm0,4.48,8,7.74v2.3l-8-8Zm0,4.21,8,8v2l-8-7.87Zm0,4.21,8,8v2.17l-8-7.88Zm0,4.34,8,7.87v2.31l-8-8Zm0,4.34,8,8v2l-8-8Z"/><path class="cls-1" d="M178.2,93.94l5.56,5.71a22.65,22.65,0,0,1-5.29-3.94l-2.31-2.31Zm5.16,1,7.19,7.2a27.08,27.08,0,0,1-3.12-1l-6.52-6.52ZM181.59,31a9.3,9.3,0,0,0,.14-1.9l8.41,8.28A6,6,0,0,1,190,38a2.23,2.23,0,0,0-1.22.27Zm0,4.21v-2L187.43,39a4.18,4.18,0,0,0-1.09,1.09Zm0,2.17,4.21,4.08a2.85,2.85,0,0,0-.14,1.08v1.22l-4.07-4.07Zm4.07,10.59-4.07-4.07V41.68l4.07,4.07Zm0,4.21-4.07-4.07V46l4.07,4.07Zm0,4.21-4.07-4.07v-2l4.07,4.07Zm3.81,8.14-7.88-7.73V54.57l4.48,4.48a3.19,3.19,0,0,0,2,1.91l1.36,1.49ZM181.59,61V58.78l7.88,8V69ZM183,66.52a8.74,8.74,0,0,1-1.09-3.12l7.2,7.19a5.33,5.33,0,0,1-2.72-.81Zm-.41-41,8.83,8.83a7,7,0,0,0-.68,1.49L182,27.15Zm.82-1.49a3.53,3.53,0,0,1,1.08-1l8.83,8.82L192.18,33l-8.82-8.82Zm2.44-1.77,1.49-.54L196,30.27l-1.49.82Zm2.31,73,7.74,7.74a18,18,0,0,0-2.58-.27L185.8,95.3Zm1.08-73.85h2.18l8,8.15a9.3,9.3,0,0,0-1.9.13Zm11.14,82a6.05,6.05,0,0,0-2.18-.27l-7.73-7.74h2Zm-6.79-82a8.29,8.29,0,0,1,2.58.54l4.75,4.75a12.1,12.1,0,0,1,.14,2.31Zm3,73.85,8.14,8.15h-2l-8-8C195.3,95.44,196.25,95.3,196.53,95.3Zm3.12-29L194.9,61.5h2.3l3.13,3.26A3.74,3.74,0,0,1,199.65,66.25Zm.68,28.51,8.41,8.28a9.91,9.91,0,0,1-2,.14L198.56,95Zm.4-31.77-1.49-1.49H201ZM204,94.08l8.42,8.42-1.9.4-8.28-8.55A6.64,6.64,0,0,0,204,94.08Zm3.4-.81,8.55,8.41-1.63.55-8.69-8.56Zm2.71-56.21-1.9-1.76h1.36L212.27,38h-1.35A2.58,2.58,0,0,1,210.1,37.06Zm.27,54.85,8.69,8.82-1.49.41-8.69-8.55C209.42,92.31,209.83,92.18,210.37,91.91ZM214.45,38l-2.72-2.71h2L216.48,38Zm-1.36,52.27,8.82,8.82c-.27.41-.81.55-1.36,1l-8.82-8.82A3.44,3.44,0,0,0,213.09,90.28Zm2.58-1.63,9,8.82-1.36,1-8.82-9Zm3-50.64-2.71-2.71h2L220.69,38Zm-.81,48.6,9,8.83-1.09,1.22-8.82-9.1Zm2-2.44L228.7,93l-.81,1.36-9-9Zm8.28-40.86-7.88-8h.82a3.28,3.28,0,0,0,1.22-.14l8.14,8.15Zm-6.52,38.42,8.82,8.82-1,1.36-8.82-8.83C221.1,82.54,221.23,82,221.64,81.73Zm1.36-3,8.55,8.69-.41,1.49-8.82-8.55C222.59,79.83,222.73,79.28,223,78.74Zm.95-3.12L232.64,84l-.55,1.77-8.68-8.55A3.33,3.33,0,0,0,224,75.62Zm9.5-33.54a1.09,1.09,0,0,1-.95,1.23l-8.69-8.83.95-.95Zm-9-23.89-.54-2,2.58,2.57a23.26,23.26,0,0,1,3.93,5.44Zm.27,54,8.42,8.28c0,.55-.27,1.23-.27,1.9l-8.42-8.55ZM225,20.77,232,27.69l.68,2.86-7.33-7.2Zm.28,47.52,8.14,8.14a10.76,10.76,0,0,1-.13,2l-8.15-8.15C225.17,69.64,225.31,69,225.31,68.29Zm8.14-28.38-8.14-8a2.4,2.4,0,0,0,.13-.95V29.87l8,8Zm-8-14.39,7.74,7.61c0,.81.14,1.76.14,2.44l-7.88-7.88Zm0,17.79v-.55l.54.55Zm0,3.8,8,7.87v2l-8-7.88Zm0,4.21,8,8V61.5l-8-8Zm0,4.2,8,8v2.18l-8-8Zm0,4.48,8,7.74v2.18l-8-7.88Zm0,4.21,8,8v2l-8-8Z"/><path class="cls-1" d="M252.32,94.08l8,8H258l-7.74-8Zm12.21,8h-2l-8-8h2Zm2.18,0-8-8H261l7.74,8Zm4.2,0-7.87-8h2.17l8,8Zm-4.34-79.42,8,7.88v2l-8-7.87Zm0,4.21,6.65,6.65h-2.31l-4.34-4.48Zm0,4.21,2.31,2.44h-2.31Zm0,25.93h.14l8,8h-.14v1.9l-8-8Zm0,4.07,8,8v1.49h-.68l-7.33-7.19Zm0,4.35,5.29,5.15h-2.3l-3-3Zm0,4.34.81.81h-.81Zm8.69,32.31-8-8h2.17l8,8Zm-5.7-80.64,8,8h-2l-8-8ZM270.91,57l8,8h-2l-8-8Zm10.73,45.07h-2.17l-7.88-8h2ZM274,21.45l8,8h-2.31l-7.88-8ZM281.1,65l-7.88-8h2.17l7.74,8Zm2.71,37.06-7.87-8h2.17l7.74,8Zm.27-72.63-8-8h2.18l8,8ZM279.6,57l8,8h-2.17l-8-8Zm8.56,45.07-8-8h2.17l8,8Zm-5.71-80.64,8,8h-2.17l-7.87-8ZM289.65,65l-7.88-8h2l8,8Zm2.71,37.06-7.87-8h2l8,8ZM286.8,21.45l7.87,8h-2l-7.88-8ZM294,65l-7.87-8a6,6,0,0,0,1.63-.27L296,65Zm2.72,37.06-7.88-8h2l7.87,8Zm-5.57-80.64,8,8H297l-8-8Zm6.79,43.31-8.82-8.83.81-1.22L298.47,63v.82A1,1,0,0,1,297.93,64.76Zm.54-12.49-8-7.88v-2l8,7.73Zm0,4.34-8-7.87V46.56l8,8Zm0,4.35-8-8V50.77l8,8Zm2.58,41.13-8-8a2.4,2.4,0,0,0,1.63-.54l8.55,8.55Zm.14-72.63-8-8,1.76-.54,8.42,8.55Zm3.94,71.41c0,.27-.28.54-.41.68l-8.83-8.83a2.83,2.83,0,0,0,.82-1.36l8.42,8.29Zm0-72.63c0,.13,0,.27-.28.54L296,20a3.23,3.23,0,0,0,.68-1.36l8.42,8.28Zm0-12.22-8-7.87V6l8,8Zm0,4.34-8-7.87V10.18l8,8Zm0,4.35-8-8v-2l8,7.74Zm-8,54,8,8v2.17l-8-7.87Zm8,14.53-8-8v-2l8,7.74Zm0,4.2-8-7.87V87.43l8,8Z"/><path class="cls-1" d="M318.42,21.45l8,8h-2.17l-8-8Zm4.21,0,5,4.89v2.17l-7.06-7.06Zm4.48,0,.55.68v2l-2.72-2.72Zm15.21,80.23-7.61-7.6h.68l8,8h-.13A2,2,0,0,1,342.32,101.68Zm-2.72-7.6,8,8h-2.17l-8-8Zm2.31,0h2l7.87,8h-2.17Zm4.21,0h2l8,8h-2Zm3.66-.54a9.26,9.26,0,0,0,1.22-1l8.83,8.82a1.28,1.28,0,0,1-.95.68h-.54Zm2-2.31a3.46,3.46,0,0,0,.27-1.63v-.27l7.87,8v2.17Zm.95-69.78,7.87,8H360V31l-7.87-8V21.45ZM360,35.16l-7.87-8v-2L360,33Zm0,4.21-7.87-7.87v-2L360,37.33Zm0,4.34-7.87-8v-2l7.87,8Zm0,4.35-7.87-8V37.88l7.87,8Zm0,4.21-7.87-7.88V42.08l7.87,8Zm0,4.34-7.87-8v-2L360,54.3Zm0,4.21L352.09,53V50.77l7.87,8Zm0,4.34-7.87-7.87V55L360,63Zm0,4.35-7.87-8v-2L360,67.2Zm0,4.21-7.87-8v-2l7.87,8Zm0,4.2-7.87-7.73V67.88l7.87,8Zm0,4.48-7.87-8V72.22L360,80.1Zm0,4.21-7.87-8V76.43l7.87,8Zm0,4.21-7.87-8v-2l7.87,8ZM360,93v2l-7.87-7.74V85.12Zm-3-71.54,8,8h-2.31l-7.74-8Zm4.34,0,7.88,8h-2l-8-8Zm2,0h2.31l7.87,8h-2.17Zm6.38-.14,8.14,8.15h-2.3l-7.88-8h.41A6.42,6.42,0,0,0,369.74,21.31Zm2.31-2,8.55,8.55v.41a1.08,1.08,0,0,1-.68,1l-8.82-8.83A7.45,7.45,0,0,0,372.05,19.28Zm8.55-2-8-8V7.06l8,7.87Zm-8-6,8,8v2.17l-8-8Zm0,4.34,8,7.88v2.17l-8-8Z"/><path class="cls-1" d="M400.82,102.09l-8-8h2.31l7.88,8Zm4.48,0-8-8h2l8,8Zm-1.63-8,7.88,8h-2l-8-8Zm3.67-.68,8.55,8.69h-2.17l-8-8.15A3.88,3.88,0,0,0,407.34,93.4Zm1-1.09A2.25,2.25,0,0,0,409.1,91l8.15,8.14v2Zm1.09-84.84v-2l7.87,7.87v2.18Zm0,2.3,7.87,7.88v2l-7.87-7.88Zm0,4.21,7.87,8v2.18l-7.87-8Zm0,4.21,7.87,8v2.17l-7.87-8Zm0,4.48,7.87,7.74v2.17l-7.87-7.87Zm0,4.21,6.38,6.38h-2.18l-4.2-4.34Zm0,4.21,2.17,2.17h-2.17Zm0,25.79,7.87,7.88v2.17l-7.87-8Zm0,4.21,7.87,8v2l-7.87-8Zm0,4.35,7.87,7.87v2.31l-7.87-8Zm0,4.2,7.87,8v2.18l-7.87-8Zm0,4.35,7.87,7.87V84l-7.87-8Zm0,4.34,7.87,7.88v2l-7.87-7.74Zm0,4.21,7.87,8v2.17l-7.87-8Zm0,4.21,7.87,8v2.17l-7.87-8Zm4.07-30,7.87,8h-2l-7.88-8Zm10.18,8-8-8h2.17l7.2,7.06v1ZM425,61.63l-5.16-4.88H422l3,2.85Zm7.06,32.45h1.49l8,8h-.95a2,2,0,0,1-1-.41C437.48,99.51,435.44,97.07,432.05,94.08Zm11.67,8-7.87-8H438l7.74,8Zm-1.49-8,8,8h-2.17l-8-8Zm10,8-7.88-8h.41a3.1,3.1,0,0,0,1.49-.41l8.15,8.42Zm4.88-1.22a.91.91,0,0,1-.68.95L447.66,93a2.07,2.07,0,0,0,.81-1.08l8.69,8.41Zm-8-94.22,8,8v2.17l-8-8Zm8,14.39-8-7.87v-2l8,7.74Zm0,4.35-8-8v-2l8,8Zm0,4.21-8-7.88V19.55l8,8Zm0,4.34-8-7.87V23.76l8,8Zm0,4.34-8-8v-2l8,7.74Zm0,4.21-8-8v-2l8,8Zm0,4.35-8-7.88V36.65l8,8Zm0,4.34-8-8V41l8,7.87Zm0,4.21-8-8v-2l8,7.88Zm0,4.21-8-8v-2l8,8Zm0,4.21-8-7.74V53.9l8,7.87Zm0,4.48-8-8V58.1l8,8Zm0,4.2-8-8v-2l8,7.87Zm0,4.21-8-7.74V66.79l8,7.88Zm0,4.48-8-8V71l8,8Zm0,4.21-8-8V75.21l8,8Zm0,4.21-8-7.87v-2l8,7.74Zm0,4.34-8-8v-2l8,8Zm0,4.35-8-8V88.11l8,8Z"/><path class="cls-1" d="M478.34,94.08l8,8H484l-7.74-8Zm12.21,8h-2l-8-8h2Zm2.18,0-8-8H487l7.74,8Zm4.2,0-7.87-8h2.17l8,8Zm-4.34-79.42,8,7.88v2l-8-7.87Zm0,4.21,6.65,6.65h-2.31l-4.34-4.48Zm0,4.21,2.31,2.44h-2.31Zm0,25.93h.14l8,8h-.14v1.9l-8-8Zm0,4.07,8,8v1.49h-.68l-7.33-7.19Zm0,4.35,5.3,5.15h-2.31l-3-3Zm0,4.34.82.81h-.82Zm8.69,32.31-8-8h2.17l8,8Zm-5.7-80.64,8,8h-2l-8-8ZM496.93,57l8,8h-2l-8-8Zm10.73,45.07h-2.17l-7.88-8h2Zm-7.6-80.64,8,8h-2.31l-7.87-8ZM507.12,65l-7.88-8h2.18l7.73,8Zm2.71,37.06-7.87-8h2.17l7.74,8Zm.27-72.63-8-8h2.18l8,8ZM505.62,57l8,8h-2.17l-8-8Zm8.56,45.07-8-8h2.17l8,8Zm-5.71-80.64,8,8h-2.17l-7.87-8ZM515.67,65l-7.87-8h2l8,8Zm2.71,37.06-7.87-8h2l8,8Zm-5.56-80.64,7.87,8h-2l-7.88-8ZM520,65l-7.87-8a6,6,0,0,0,1.63-.27L522.05,65Zm2.72,37.06-7.88-8h2l7.88,8Zm-5.57-80.64,8,8H523l-8-8ZM524,64.76l-8.82-8.83.81-1.22L524.49,63v.82A1,1,0,0,1,524,64.76Zm.54-12.49-8-7.88v-2l8,7.73Zm0,4.34-8-7.87V46.56l8,8Zm0,4.35-8-8V50.77l8,8Zm2.58,41.13-8-8a2.38,2.38,0,0,0,1.63-.54l8.56,8.55Zm.14-72.63-8-8,1.76-.54,8.42,8.55Zm3.94,71.41c0,.27-.28.54-.41.68l-8.83-8.83a2.83,2.83,0,0,0,.82-1.36l8.42,8.29Zm0-72.63c0,.13,0,.27-.28.54L522.05,20a3.23,3.23,0,0,0,.68-1.36l8.42,8.28Zm0-12.22-8-7.87V6l8,8Zm0,4.34-8-7.87V10.18l8,8Zm0,4.35-8-8v-2l8,7.74Zm-8,54,8,8v2.17l-8-7.87Zm8,14.53-8-8v-2l8,7.74Zm0,4.2-8-7.87V87.43l8,8Z"/><path class="cls-1" d="M551,94.08l7.87,8h-2.17l-8-8Zm4.21,0,8,8h-2.31l-7.74-8Zm12.22,8h-2.18l-7.87-8h2Zm-4.89-9.23,9,8.82c-.41.14-.54.41-.81.41h-1.09l-8.28-8.42A3.83,3.83,0,0,0,562.5,92.86Zm1.36-3,7.87,7.88v2l-8.28-8.28A5.56,5.56,0,0,0,563.86,89.87ZM573,30.41h-1.22v.81l-7.87-7.73V22.4h1.08Zm-1.22,3.12V35.7l-7.87-8V25.52Zm0,4.21v2.17l-7.87-8v-2Zm0,4.21v2.17l-7.87-7.87v-2ZM569.29,46l-5.43-5.43V38.42l7.46,7.47A9.32,9.32,0,0,1,569.29,46Zm-4.35,0-1.08-1.22V42.63L567.25,46Zm2,27.83-3.12-3.39v-.14h1.63Zm3.67,7.88-6.79-6.79V72.63l5,5.16ZM563.86,77l7.87,7.88v2.31l-7.87-8Zm0,4.35,7.87,7.87v2.17l-7.87-8Zm0,4.21,7.87,7.87v2.17l-7.87-8Zm11.27-57.29v2.17H575l-7.74-8h2Zm-3.67-5.84c2,.41,2.85,1.36,3.39,3.39Zm13.71,71.68,8,8H591l-8-8Zm4.21,0,8,8h-2.17l-7.88-8Zm1-27.15-1-1.49a3.33,3.33,0,0,1,1-.55l8.82,8.83a11.45,11.45,0,0,0-1.35.81Zm9.91,5.7-8.82-8.82c.4-.28.67-.68,1.08-1l8.83,8.82C600.92,72,600.65,72.36,600.24,72.63Zm-6.52,21.45,7.88,8h-2.17l-7.74-8Zm3-18.46,1.77,3.8-4.62-4.48L592,71Zm5.57-5.16-8.83-8.83a4.09,4.09,0,0,0,.95-1.22l9,8.83A10.27,10.27,0,0,1,602.28,70.46ZM604,67.88l-8.82-8.83A5.9,5.9,0,0,0,596,57.7l8.83,8.82A14.32,14.32,0,0,1,604,67.88Zm-6.65,14.8-1.9-3.94,4.75,4.61L602,87.43Zm.14,11,8.41,8.42h-2l-8-8A2.91,2.91,0,0,0,597.53,93.67ZM605.4,65l-8.69-8.69a3,3,0,0,0,.68-1.49l8.69,8.68A7.65,7.65,0,0,1,605.4,65Zm1-3.26-8.42-8.42a8.5,8.5,0,0,1,.55-1.76l8.41,8.55A11,11,0,0,1,606.35,61.77Zm-7.2-41.68a17.94,17.94,0,0,1-.54-2.58l5.7,5.84A17.71,17.71,0,0,1,605.94,27Zm0,28,8.15,8.14a4.32,4.32,0,0,1-.27,1.9l-8.28-8.28A8,8,0,0,1,599.15,48.06ZM608,100.32c.13.55.13,1.09-.27,1.36l-8.83-9a1.38,1.38,0,0,0,.55-.68c.13-.13.13-.4.4-.54l7.61,7.6ZM599.29,22.4l7.47,7.47a19.37,19.37,0,0,1,.27,2.58l-7.6-7.61A15.11,15.11,0,0,0,599.29,22.4Zm8.15,31.77L599.29,46a10,10,0,0,0,.14-2l8,8v2.17ZM599.83,88l-.54-1.36,4.62,4.75,1.76,3.94-5.57-5.43A4.32,4.32,0,0,0,599.83,88Zm-.4-61.09,7.87,8a10,10,0,0,1,.14,2l-8-7.88Zm8,14.39-8-8v-2l8,7.88Zm0,4.21-8-7.88v-2l8,7.74Zm0,4.34-8-7.87V39.78l8,8Z"/><path class="cls-2" d="M0,17V2.44A1.22,1.22,0,0,1,1.22,1.22H57.83a1.22,1.22,0,0,1,1.22,1.22V17a1.21,1.21,0,0,1-1.22,1.22H38.56V89.6a1.22,1.22,0,0,1-1.23,1.22H21.72A1.21,1.21,0,0,1,20.5,89.6V18.19H1.22A1.21,1.21,0,0,1,0,17Z"/><path class="cls-2" d="M132.49,8.15c4.08,4.48,6,10.86,6,20V63.81c0,9.36-1.9,15.88-6,20.22-5.29,5.43-13.3,8.15-25,8.15-12.09,0-20-2.72-25.12-8.15-3.94-4.34-6.11-10.86-6.11-20.22V28.1c0-9.09,2-15.61,6.11-20.09,5.16-5.57,13.3-8,25.12-8S127.34,2.58,132.49,8.15ZM120.41,32.58c0-11.94-6.38-14.39-12.22-14.39h-1.63c-8.68,0-12.08,5.57-12.08,14.39V59.73c0,12,6.38,14.53,12.08,14.53h1.63c8.69,0,12.09-5.84,12.22-14.53Z"/><path class="cls-2" d="M189.1,57V42.49a1.21,1.21,0,0,1,1.22-1.22h31.09a1.21,1.21,0,0,1,1.22,1.22V63.81c0,20-10.72,28.37-30.95,28.37-18.87,0-31.22-7.47-31.22-28.37V28.1c0-19.68,11-28.1,31.22-28.1,19,0,30.95,7.33,30.95,28.1V31a1.21,1.21,0,0,1-1.22,1.22H205.8A1.21,1.21,0,0,1,204.58,31V29.19c0-8.28-5.3-11-12.22-11h-1.63c-4.48,0-7.47,1.22-9.5,3.94s-2.58,6-2.58,10.45V59.46c0,11.81,6.38,14.39,12.08,14.39h1.63c8.28,0,12.22-5.7,12.22-14.39V58.24H190.32A1.21,1.21,0,0,1,189.1,57Z"/><path class="cls-2" d="M245.7,89.6V2.44a1.11,1.11,0,0,1,1.09-1.22H293a1.22,1.22,0,0,1,1.22,1.22V17A1.21,1.21,0,0,1,293,18.19H263.62V36.65h22.81a1.12,1.12,0,0,1,1.09,1.23V52.67a1.12,1.12,0,0,1-1.09,1.23H263.62V73.85H293a1.22,1.22,0,0,1,1.22,1.22V89.6A1.21,1.21,0,0,1,293,90.82H246.79A1.11,1.11,0,0,1,245.7,89.6Z"/><path class="cls-2" d="M310.59,17V2.44a1.22,1.22,0,0,1,1.22-1.22h56.61a1.23,1.23,0,0,1,1.23,1.22V17a1.22,1.22,0,0,1-1.23,1.22H349.15V89.6a1.22,1.22,0,0,1-1.23,1.22H332.31a1.21,1.21,0,0,1-1.22-1.22V18.19H311.81A1.21,1.21,0,0,1,310.59,17Z"/><path class="cls-2" d="M428.42,2.44a1.22,1.22,0,0,1,1.22-1.22h15.48a1.22,1.22,0,0,1,1.22,1.22V89.6a1.21,1.21,0,0,1-1.22,1.22H429.64a1.22,1.22,0,0,1-1.22-1.22V53.49h-22V89.6a1.21,1.21,0,0,1-1.22,1.22H389.73a1.1,1.1,0,0,1-1.08-1.22V2.44a1.11,1.11,0,0,1,1.08-1.22h15.48a1.22,1.22,0,0,1,1.22,1.22V36.52h22Z"/><path class="cls-2" d="M471.72,89.6V2.44a1.11,1.11,0,0,1,1.09-1.22H519a1.22,1.22,0,0,1,1.22,1.22V17A1.21,1.21,0,0,1,519,18.19H489.65V36.65h22.8a1.12,1.12,0,0,1,1.09,1.23V52.67a1.12,1.12,0,0,1-1.09,1.23h-22.8V73.85H519a1.22,1.22,0,0,1,1.22,1.22V89.6A1.21,1.21,0,0,1,519,90.82H472.81A1.11,1.11,0,0,1,471.72,89.6Z"/><path class="cls-2" d="M585.62,64.08,597,89.19a1.08,1.08,0,0,1-.95,1.63H579.38a.91.91,0,0,1-1-.68L567.83,67.06h-6.92V89.6a1.21,1.21,0,0,1-1.22,1.22H544.08a1.1,1.1,0,0,1-1-1.22V2.44a1.1,1.1,0,0,1,1-1.22h28.24c15.06,0,24.16,8.55,24.16,24.44v17.1A29.89,29.89,0,0,1,594,55.39,17.51,17.51,0,0,1,585.62,64.08ZM578.7,29.73c0-9.5-3.53-10.45-13.85-10.45h-3.94v30h3.94c8.55,0,13.57-.14,13.85-10.72Z"/></g></g></svg>