<svg xmlns="http://www.w3.org/2000/svg" viewBox="0 0 449.72 53.97"><defs><style>.cls-1{fill:#ed43a5;}</style></defs><title>design-prog</title><g id="レイヤー_2" data-name="レイヤー 2"><g id="レイヤー_1-2" data-name="レイヤー 1"><path class="cls-1" d="M79.13,45.42H69.49v-3h5.42q3.61,0,3.62-3V26.13H68.28v-3H90v3H84.56V39.39Q84.56,45.42,79.13,45.42Zm-9-28.34v-3H88.18v3Zm20.35,3.77L88,18.24l2.42-2.66,2.41,2.66Zm4.92,0L93,18.24l2.41-2.66,2.41,2.66Z"/><path class="cls-1" d="M106.91,45.42v-3h2.31q4.32,0,4.32-2.91V21.3h-4.82V34.67h-6V21.3h-2.41v-3h2.41V12.87h6v5.42h4.82V12.87h6v5.42h1.81v3h-1.81V39.54q0,5.88-6.68,5.88Zm16.33-27.18-2.41-2.61L123.24,13l2.41,2.66Zm4.92,0-2.41-2.61L128.16,13l2.41,2.66Z"/><path class="cls-1" d="M138.67,45.42V28.49l-4.87,6.08H129l17.43-21.7h4.87L144.7,20.7V45.42Z"/><path class="cls-1" d="M153.74,17.08v-3H164v3Zm15.07,28.34H155v-3h9.34q3.92,0,3.92-3V17.08h6V39.39Q174.24,45.42,168.81,45.42Z"/><path class="cls-1" d="M186.29,45.88q-4.66,0-4.66-5.18V30.85q0-5.18,4.66-5.18l-4.66-7.77h5.18l4.66,7.77h5.7v2.59h-7.25c-2.08,0-3.11.86-3.11,2.59V40.7c0,1.73,1,2.59,3.11,2.59h8.81v2.59Z"/><path class="cls-1" d="M206.39,45.42v-3h3q3.61,0,3.62-3.61V17.08H201v-3h18.08V38.79c0,4.42-1.6,6.63-4.82,6.63Zm16.83-25.57-3.51-3.72,3.51-3.87,3.52,3.87Zm0-2,1.51-1.71-1.51-1.71-1.5,1.71Z"/><path class="cls-1" d="M249.35,14.07V45.42h-19.9V14.07Zm-6,28.33V17.08h-7.84V42.4Z"/><path class="cls-1" d="M261.83,45.42v-3h3q3.62,0,3.62-3.61V18.89h-6.63v6q0,5.43-6,5.43h-3v-3h.6a2.13,2.13,0,0,0,2.41-2.41V12.87h6v3h12.66V38.79q0,6.63-6.63,6.63Zm15.52-27.18-2.41-2.61L277.35,13l2.41,2.66Zm4.92,0-2.41-2.61L282.27,13l2.42,2.66Z"/><path class="cls-1" d="M292,45.42v-3h4.82q3.61,0,3.62-3.61V24.32H286v-3h20.5V38.79q0,6.63-4.83,6.63Zm-5.43-28.34v-3H305.9v3Z"/><path class="cls-1" d="M310.2,15.88v-3l22.31,2.41v3Zm0,27.13V37l22.31,2.41v6ZM312,26.13V22.51l18.69,2.41v3.62Z"/><path class="cls-1" d="M335.44,17.08v-3h10.24v3Zm15.07,28.34H336.64v-3H346c2.62,0,3.92-1,3.92-3V17.08h6V39.39Q355.93,45.42,350.51,45.42Z"/><path class="cls-1" d="M367.38,45.42v-3h3q3.62,0,3.62-3.61V18.89h-6.64v6c0,3.62-2,5.43-6,5.43h-3v-3H359a2.13,2.13,0,0,0,2.41-2.41V12.87h6v3H380V38.79q0,6.63-6.63,6.63Zm15.53-27.18-2.41-2.61L382.91,13l2.41,2.66Zm4.92,0-2.41-2.61L387.83,13l2.41,2.66Z"/><path class="cls-1" d="M406.16,45.88V43.29c1.38,0,2.07-.86,2.07-2.59V24.12a2.29,2.29,0,0,0-2.59-2.6h-.52V45.88h-7.77q-4.67,0-4.66-5.18V24.12q0-5.19,4.66-5.19h11.4q4.67,0,4.66,5.19V40.7q0,5.17-4.66,5.18Zm-6.22-24.36c-1.38,0-2.07.87-2.07,2.6V40.7c0,1.73.69,2.59,2.07,2.59Z"/><path class="cls-1" d="M417.77,20.1V15.88l6-3,6,3V20.1l-6-3Zm.6,3v-3h10.85v3h-2.71v3h2.71v3h-2.71V41.5l2.71-.3v3l-10.85,1.21v-3l2.71-.3v-13h-2.71v-3h2.71v-3ZM419,41.2l-.6-10.85h1.81l.6,10.85Zm9.65-.6h-1.81l.6-10.25h1.81Zm1.2,4.82V24.92H431V13.47h17.48V24.92h1.21V40.6q0,4.82-4.83,4.82h-3.61v-3h1.2a1.59,1.59,0,0,0,1.81-1.8V27.94h-9V45.42ZM436.05,40V28.54h7.44V40Zm1.61-22.3h5.42V16.48h-6.63v8.44h1.21Zm1.71,13.86V37h.8V31.55Zm3.71-10.85h-1.2v4.22h1.2Z"/><path class="cls-1" d="M54,27A27,27,0,1,1,27,0,27,27,0,0,1,54,27ZM20.87,13a3.57,3.57,0,1,0,0,7.13H23v13.8h-2.5a3.56,3.56,0,1,0,0,7.12H33.55a3.56,3.56,0,1,0,0-7.12h-2V16.62A3.56,3.56,0,0,0,27.92,13Z"/></g></g></svg>