<svg xmlns="http://www.w3.org/2000/svg" viewBox="0 0 784.9 806.51"><defs><style>.cls-1{fill:#fff;}</style></defs><title>kosen14s-logo</title><g id="レイヤー_2" data-name="レイヤー 2"><g id="レイヤー_1-2" data-name="レイヤー 1"><path class="cls-1" d="M80.38,357.38c-2.58-2.48-4.53-4.3-6.42-6.18q-31.11-31-62.2-61.95c-3.24-3.23-6.33-6.6-9.68-9.71a5.59,5.59,0,0,1-1.61-6.67A412.08,412.08,0,0,1,53.54,169.35,406.05,406.05,0,0,1,118.46,97.9,388.68,388.68,0,0,1,173.61,58,394.72,394.72,0,0,1,258.9,19.18,416.47,416.47,0,0,1,339.69,2.27a376.64,376.64,0,0,1,87.25.54c11.92,1.49,23.95,2.73,35.64,5.37a468.45,468.45,0,0,1,46.79,12.88,484.61,484.61,0,0,1,46.8,18.81A308.71,308.71,0,0,1,591.8,59.51c13.64,8.62,27,17.84,39.81,27.6,20.1,15.25,38.14,32.87,54.64,51.92,15.1,17.43,29.33,35.68,40.48,56,9.39,17.08,18.73,34.28,26.69,52.05a285.72,285.72,0,0,1,19.63,59.62c3.27,16.05,6.73,32.12,8.79,48.35,1.93,15.11,2.16,30.45,3,45.69a31.08,31.08,0,0,1-.56,5.23l-1.25.62c-6.56-6.77-13.07-13.6-19.71-20.3-10.43-10.53-21-21-31.45-31.46l-39.68-39.66c-8.81-8.81-17.39-17.87-26.51-26.35-5.94-5.52-8.17-13-12.07-19.59-7.36-12.46-14.49-25.08-22.44-37.16a219.29,219.29,0,0,0-20.6-27.27c-9.61-10.56-20.14-20.31-30.68-30-14.62-13.4-31.07-24.29-48.23-34.22A293.7,293.7,0,0,0,471,114.24a289.92,289.92,0,0,0-55.39-11.4c-22.17-2.32-44.32-3.12-66.41,0-15.09,2.1-30,5.2-45.07,7.86-2.87.5-3.23,2.6-3.23,5q0,27.28-.06,54.55-.21,69.65-.47,139.29-.15,42.36-.24,84.74c0,3.81,0,7.62,0,11.43l1,.32c1.66-1.6,3.35-3.17,5-4.79q39.69-39.24,79.36-78.48c15.34-15.12,30.87-30,46.18-45.19q37.94-37.56,75.69-75.3c10-10,20.14-19.91,30.18-29.9,1.81-1.8,3.5-1.32,5.23-.08a324.07,324.07,0,0,1,40.84,34.55c19.51,19.59,35.32,41.8,48.38,66a218.48,218.48,0,0,1,9.4,19.73c.62,1.5-.29,4.48-1.54,5.75-9.52,9.65-19.32,19-29,28.53Q584,353.24,557.16,379.66c-8.55,8.4-17.16,16.73-25.72,25.11-.87.85-1.63,1.84-3,3.46,2.18.19,3.42.39,4.66.4q46.44.33,92.88.63c11.74.08,23.48.26,35.23.26,2.94,0,3.91,1.15,3.67,4-.9,10.52-1.25,21.12-2.69,31.56a223.75,223.75,0,0,1-6.2,31.5c-4.08,14.08-8.9,28-14.31,41.63-7.13,18-16.94,34.66-28,50.45a262.16,262.16,0,0,1-46.8,51.47c-8.94,7.41-18.37,14.24-27.71,21.16-4.64,3.45-4.68,3.19-8.6-.8q-34.77-35.36-69.61-70.63t-69.42-70.25q-31-31.36-62-62.69c-8.45-8.56-16.82-17.19-25.25-25.77-.95-1-2.06-1.78-3.88-3.33-.21,2.49-.43,4-.44,5.44-.19,38.85-.31,77.7-.56,116.55q-.51,81.22-1.25,162.45c0,4.13,1.18,5.84,5.29,7,33.37,9.53,67.44,11.58,101.79,9.36,23.13-1.5,45.72-6.27,67.91-13.23a296.77,296.77,0,0,0,105.54-58.17,300,300,0,0,0,44.19-46.34,317.69,317.69,0,0,0,33.57-54.49c1.81-3.72,5.19-6.81,8.26-9.77,17.25-16.6,34.62-33.07,52-49.59,16.42-15.64,32.95-31.16,49.21-47,5.87-5.71,11.09-12.1,16.61-18.18l1.73,1a15.24,15.24,0,0,1,.72,3.8c-1,14.21-1.61,28.47-3.33,42.59a327.31,327.31,0,0,1-6.51,35c-2.85,12.16-6.15,24.26-10.09,36.1s-8.64,23.45-13.54,34.94a377,377,0,0,1-34.44,63.16A404.44,404.44,0,0,1,574.23,758c-26.88,14.54-54.89,26.4-84.55,33.86A438.93,438.93,0,0,1,383,806.48a328.65,328.65,0,0,1-65.18-5.38c-13.07-2.48-26.19-4.94-39.06-8.28a360,360,0,0,1-55.07-19A429.81,429.81,0,0,1,174.2,748.6a403.26,403.26,0,0,1-62.47-46.41,399,399,0,0,1-60-68.07A416.8,416.8,0,0,1,7,550.76C4.88,545.42,3,540,1,534.61c-.93-2.52-.74-4.65,1.4-6.74Q36.78,494.33,71,460.65l9.42-9.22C94.39,530.31,131.63,594.34,194,644.78c.48-2.42,1-3.82,1-5.23q.25-43.75.4-87.51c.21-59,.52-118,.59-177q.11-102.63-.17-205.26a17.33,17.33,0,0,0-1-4,23.4,23.4,0,0,0-3.54,1.87c-15.51,11.88-29.25,25.65-41.9,40.46a272.24,272.24,0,0,0-34.67,50.62c-5.19,9.94-10.62,19.87-14.57,30.31-5.48,14.47-9.87,29.37-14.33,44.21-1.91,6.35-2.81,13-4.19,19.51C81.37,354,81,355.17,80.38,357.38Z"/></g></g></svg>