<svg xmlns="http://www.w3.org/2000/svg" viewBox="0 0 260.66 249.36"><defs><style>.cls-1{fill:#ff642e;}.cls-2{fill:#fff;}</style></defs><title>new-icon</title><g id="レイヤー_2" data-name="レイヤー 2"><g id="レイヤー_1-2" data-name="レイヤー 1"><path class="cls-1" d="M239,160c3.94-12.08,21.62-22.34,21.62-35.31,0-12.52-17.55-22.77-21.63-35.32s4.09-31.16-3.26-41.29c-7.63-10.49-28-8.4-38.25-15.86S182.8,4.73,170.6.75s-27.3,9.6-40.27,9.6c-12.52,0-27.72-13.67-40.27-9.59S73.25,24.83,63.13,32.19c-10.5,7.62-30.76,5.62-38.22,15.9s.68,29.08-3.29,41.27S0,111.71,0,124.68C0,137.2,17.55,147.45,21.63,160s-4.09,31.15,3.26,41.28c7.62,10.5,28,8.41,38.25,15.87s14.72,27.48,26.92,31.45S117.35,239,130.33,239c12.51,0,27.72,13.66,40.26,9.59s16.81-24.08,26.94-31.43c10.5-7.62,30.76-5.62,38.22-15.9S235.07,172.19,239,160Z"/><path class="cls-2" d="M55.55,123.78,50.31,113.3h-.48l1.52,10.48v34.78H39V91.38H48.5l25.25,35.55,5,10.19h.47l-1.52-10.19V91.86H90.14V159H80.61Z"/><path class="cls-2" d="M101.57,91.86h39.55v11.62H114.63V119h24.1v11.62h-24.1v16.3h27v11.62h-40Z"/><path class="cls-2" d="M168.65,129.12l1.24,11.81h.38l1.34-12,11.62-37.07h8.58l11.43,37.26,1.34,11.81H205l1.43-12,8.1-37.07h13.24L209.34,159h-8.76L188.66,122,187,111.77h-.47L185,122.07l-11.82,37h-9.24l-18.3-67.18h14.2Z"/></g></g></svg>