<svg xmlns="http://www.w3.org/2000/svg" viewBox="0 0 149.45 52.7">
  <defs>
    <style>.cls-1{fill:#fff;}</style>
  </defs>
  <title>14s_dojin_logo</title>
  <g id="レイヤー_1-2" data-name="レイヤー 1">
    <path class="cls-1" d="M73.54,23.63V23.1c.61,0,.92-.15.92-.41s-.13-.44-.53-1l-2.07-2.93-.51.52v2.5c0,1,.11,1.16,1.14,1.31v.53H67.26V23.1c.72-.06,1-.46,1-1.31V10.63c0-.83-.31-1.2-1-1.27V8.84h4.09v9.43l2.8-2.8a1.65,1.65,0,0,0,.46-.84c0-.28-.19-.41-.76-.5L73.32,14v-.5H78V14c-1.37.18-1.94.57-4.13,2.87l4.24,5.86c.2.27.31.33.55.33v.53Z"/>
    <path class="cls-1" d="M83.78,23.93a5,5,0,0,1-4.92-5.29c0-3.2,2.12-5.36,5-5.36s4.86,2.23,4.86,5.34A5,5,0,0,1,83.78,23.93Zm0-10c-1.34,0-1.73,1.16-1.73,4.9,0,3.17.46,4.4,1.73,4.4s1.7-1.14,1.7-4.4C85.51,15.12,85.1,14,83.81,14Z"/>
    <path class="cls-1" d="M96.15,16.49a3.93,3.93,0,0,0-1-1.79,2.36,2.36,0,0,0-1.64-.7A1.33,1.33,0,0,0,92,15.27c0,.74.61,1.31,2.1,1.92,2.19.92,3,1.86,3,3.42a3.19,3.19,0,0,1-3.37,3.32,7.86,7.86,0,0,1-2.37-.5,1.41,1.41,0,0,0-.5-.13c-.2,0-.33.15-.57.61h-.54V20.3h.61c.46,1.9,1.46,2.89,3,2.89a1.46,1.46,0,0,0,1.64-1.42c0-.7-.59-1.25-2.1-1.91-2.21-.94-3.11-1.94-3.11-3.39a3.21,3.21,0,0,1,3.43-3.19,5.05,5.05,0,0,1,1.71.33,2.53,2.53,0,0,0,.68.15c.28,0,.41-.11.55-.44h.48v3.17Z"/>
    <path class="cls-1" d="M107.12,21.18c-1.32,2.08-2.48,2.75-4.34,2.75-2.64,0-4.46-2.21-4.46-5.2,0-3.26,1.84-5.45,4.57-5.45a3.55,3.55,0,0,1,2.8,1.09,6.25,6.25,0,0,1,1.29,3.9h-5.51c.13,2.08.46,4.09,2.6,4.09a3.15,3.15,0,0,0,2.52-1.49ZM104.29,17a5,5,0,0,0-.19-2c-.31-.65-.57-1-1.21-1-1,0-1.53.87-1.53,3.5h2.93Z"/>
    <path class="cls-1" d="M114.16,23.63V23.1c.75-.09,1-.44,1-1.31V16.6c0-1.22-.37-1.86-1.11-1.86a2.25,2.25,0,0,0-1.54.75,1.41,1.41,0,0,0-.37.52v5.78c0,.81.24,1.2,1,1.31v.53H108V23.1c1-.19,1.16-.46,1.16-1.38V15.4c0-.94-.2-1.18-1.16-1.33v-.53h4.18v1.64h0a3.4,3.4,0,0,1,3.11-1.9,2.83,2.83,0,0,1,2.95,3.1v5.41c0,1,.22,1.25,1.07,1.31v.53Z"/>
    <path class="cls-1" d="M121.15,23.63V23.1c2.17,0,2.58-.39,2.58-2.3V12.53c0-1-.24-1.53-.79-1.53a4.49,4.49,0,0,0-1.42.35l-.44.18V11l5.5-2.39H127V21.05c0,1.66.35,2,2.34,2.05v.53Z"/>
    <path class="cls-1" d="M139.62,20.48v3.15h-3.17V20.48H131V18l6.85-9.43h1.75v9.48H141v2.43Zm-3.15-8.87-4.55,6.44h4.55Z"/>
    <path class="cls-1" d="M148.44,16.49a3.93,3.93,0,0,0-1-1.79,2.36,2.36,0,0,0-1.64-.7,1.33,1.33,0,0,0-1.44,1.27c0,.74.61,1.31,2.1,1.92,2.19.92,3,1.86,3,3.42a3.19,3.19,0,0,1-3.37,3.32,7.8,7.8,0,0,1-2.36-.5,1.5,1.5,0,0,0-.51-.13c-.19,0-.33.15-.57.61h-.54V20.3h.61c.46,1.9,1.47,2.89,3,2.89a1.46,1.46,0,0,0,1.64-1.42c0-.7-.59-1.25-2.1-1.91-2.21-.94-3.11-1.94-3.11-3.39a3.21,3.21,0,0,1,3.44-3.19,5,5,0,0,1,1.7.33,2.53,2.53,0,0,0,.68.15c.29,0,.42-.11.55-.44H149v3.17Z"/>
    <path class="cls-1" d="M75.49,38.32l-.4,2.93H77v1.6H74.85l-.63,4.59H72.51l.64-4.59H70.67L70,47.44H68.33L69,42.85H66.89v-1.6h2.32l.39-2.93H67.52v-1.6h2.3l.66-4.6h1.68l-.63,4.6H74l.66-4.6h1.68l-.63,4.6h1.9v1.6Zm-4.18,0-.4,2.93h2.48l.39-2.93Z"/>
    <path class="cls-1" d="M88.05,47.18a16.89,16.89,0,0,0-2.91.54V46.3a3.55,3.55,0,0,1-2.91,1.45c-2.3,0-4-2.15-4-5.15,0-3.17,1.79-5.51,4.2-5.51a3.24,3.24,0,0,1,2.6,1.36v-4c0-1-.19-1.16-1.66-1.27v-.52h4.71V45.23c0,.92.28,1.2,1.29,1.27V47Zm-3-7.51a1.91,1.91,0,0,0-1.7-1.35c-1.27,0-1.86,1.29-1.86,4.11s.55,4.09,1.71,4.09a1.87,1.87,0,0,0,1.44-.81,2,2,0,0,0,.41-.72Z"/>
    <path class="cls-1" d="M95.36,47.75a5,5,0,0,1-4.92-5.3c0-3.19,2.12-5.36,5-5.36s4.86,2.23,4.86,5.34A5,5,0,0,1,95.36,47.75Zm0-10c-1.34,0-1.73,1.16-1.73,4.9,0,3.17.46,4.4,1.73,4.4s1.7-1.14,1.7-4.4C97.09,38.93,96.68,37.77,95.39,37.77Z"/>
    <path class="cls-1" d="M106.53,47.4a5.31,5.31,0,0,1-.59,2.82,3.58,3.58,0,0,1-3.29,1.66c-1.79,0-3.06-.89-3.06-2.19A1.28,1.28,0,0,1,101,48.36a1.23,1.23,0,0,1,1.29,1.18,1.5,1.5,0,0,1-.31.81,1.12,1.12,0,0,0-.2.48c0,.22.29.37.7.37.75,0,1-.5,1-1.66V39.17c0-.94-.26-1.2-1.37-1.29v-.53h4.42Zm-1.67-11.69A1.62,1.62,0,0,1,103.2,34a1.68,1.68,0,0,1,1.71-1.71A1.72,1.72,0,0,1,106.59,34,1.66,1.66,0,0,1,104.86,35.71Z"/>
    <path class="cls-1" d="M108.48,47.44v-.52c1-.25,1.16-.4,1.16-1.41V39.28c0-1-.22-1.2-1.19-1.4v-.53h4.23v8.23c0,.94.28,1.23,1,1.34v.52Zm2.64-11.73A1.64,1.64,0,0,1,109.44,34a1.7,1.7,0,1,1,3.39,0A1.66,1.66,0,0,1,111.12,35.71Z"/>
    <path class="cls-1" d="M120.88,47.44v-.52c.75-.09,1-.44,1-1.32V40.42c0-1.23-.37-1.86-1.11-1.86a2.24,2.24,0,0,0-1.54.74,1.35,1.35,0,0,0-.37.53V45.6c0,.81.24,1.21,1,1.32v.52h-5.25v-.52c1-.2,1.16-.46,1.16-1.38V39.21c0-.94-.2-1.18-1.16-1.33v-.53h4.18V39h0a3.4,3.4,0,0,1,3.11-1.9,2.83,2.83,0,0,1,3,3.11v5.4c0,1,.22,1.25,1.07,1.32v.52Z"/>
    <path id="_14slogo" data-name="14slogo" class="cls-1" d="M5.25,23.35,4.83,23,.77,18.9c-.21-.21-.42-.43-.63-.63A.37.37,0,0,1,0,17.83,26.86,26.86,0,0,1,3.5,11.07,26.49,26.49,0,0,1,7.74,6.4a24.81,24.81,0,0,1,3.6-2.61,26,26,0,0,1,5.58-2.54A27.08,27.08,0,0,1,22.2.15a24.7,24.7,0,0,1,5.7,0c.78.1,1.56.18,2.33.35a31.23,31.23,0,0,1,3.05.85,30.06,30.06,0,0,1,3.06,1.23,20.24,20.24,0,0,1,2.33,1.28c.89.56,1.76,1.16,2.6,1.8a23.4,23.4,0,0,1,3.57,3.39,21.59,21.59,0,0,1,2.65,3.66c.61,1.12,1.22,2.24,1.74,3.4A18.37,18.37,0,0,1,50.51,20c.22,1.05.44,2.1.58,3.16s.14,2,.2,3c0,.11,0,.22,0,.34l-.08,0c-.43-.45-.85-.89-1.29-1.33-.68-.69-1.37-1.37-2.05-2l-2.6-2.6c-.57-.57-1.13-1.16-1.73-1.72a5.14,5.14,0,0,1-.79-1.28c-.48-.81-.94-1.64-1.46-2.43a14.61,14.61,0,0,0-1.35-1.78c-.63-.69-1.32-1.33-2-2a18,18,0,0,0-3.16-2.23,19.54,19.54,0,0,0-7.58-2.47,18,18,0,0,0-4.34,0c-1,.13-2,.34-2.95.51-.18,0-.21.17-.21.33v3.56l0,9.1c0,1.85,0,3.69,0,5.54v.75l.07,0,.32-.31c1.73-1.71,3.46-3.43,5.19-5.13l3-3c1.65-1.63,3.29-3.28,4.94-4.92l2-2a.24.24,0,0,1,.35,0,21.31,21.31,0,0,1,2.66,2.26,18.43,18.43,0,0,1,3.17,4.32c.22.42.43.85.61,1.29a.43.43,0,0,1-.1.37c-.62.63-1.26,1.25-1.89,1.87l-3.51,3.45-1.68,1.64-.2.23.3,0,6.07,0,2.3,0c.2,0,.26.07.24.26,0,.69-.08,1.38-.17,2.06a14.44,14.44,0,0,1-.41,2.06c-.26.92-.58,1.83-.93,2.72a16.62,16.62,0,0,1-1.83,3.3A17.75,17.75,0,0,1,37,40.52c-.59.48-1.2.93-1.81,1.38-.31.23-.31.21-.57,0l-4.54-4.62-4.54-4.59-4-4.09-1.65-1.69c-.06-.06-.14-.11-.26-.21,0,.16,0,.26,0,.35q0,3.81,0,7.62c0,3.54,0,7.07-.08,10.61,0,.27.07.38.34.46a19.39,19.39,0,0,0,6.65.61,19.17,19.17,0,0,0,4.44-.86,19.68,19.68,0,0,0,3.69-1.57,20.9,20.9,0,0,0,3.21-2.23,20.21,20.21,0,0,0,2.89-3,20.63,20.63,0,0,0,2.19-3.56,2.52,2.52,0,0,1,.54-.64l3.39-3.24c1.08-1,2.16-2,3.22-3.07.38-.37.72-.79,1.09-1.19l.11.07a2,2,0,0,1,0,.24c-.07.93-.11,1.86-.22,2.79a21.81,21.81,0,0,1-.43,2.28A23.53,23.53,0,0,1,50,34.65c-.25.77-.56,1.53-.88,2.28a24.63,24.63,0,0,1-2.25,4.13,26.2,26.2,0,0,1-9.33,8.47A23.8,23.8,0,0,1,32,51.75a31.11,31.11,0,0,1-3.3.67A32.38,32.38,0,0,1,25,52.7a21.69,21.69,0,0,1-4.26-.35c-.86-.16-1.71-.33-2.55-.54a23.91,23.91,0,0,1-3.6-1.24,28.18,28.18,0,0,1-3.24-1.65,26.21,26.21,0,0,1-4.08-3,25.87,25.87,0,0,1-3.92-4.44A27.47,27.47,0,0,1,.46,36c-.14-.35-.27-.7-.4-1.06a.38.38,0,0,1,.1-.44L4.64,30.1l.62-.6a20.15,20.15,0,0,0,7.42,12.63,2,2,0,0,0,.06-.34l0-5.72c0-3.85,0-7.71,0-11.56q0-6.71,0-13.41a2.68,2.68,0,0,0-.07-.27,1,1,0,0,0-.23.13A18,18,0,0,0,9.76,13.6,17.77,17.77,0,0,0,7.5,16.91a19,19,0,0,0-1,2c-.35.94-.64,1.92-.93,2.89-.13.41-.19.85-.28,1.27A2.32,2.32,0,0,1,5.25,23.35Z"/>
  </g>
</svg>