<svg xmlns="http://www.w3.org/2000/svg" viewBox="0 0 50 50"><defs><style>.cls-1{fill:#4267b2;}.cls-2{fill:#fff;}</style></defs><title>fb_btn</title><g id="レイヤー_2" data-name="レイヤー 2"><g id="レイヤー_1-2" data-name="レイヤー 1"><path class="cls-1" d="M47.24,0H2.74A2.75,2.75,0,0,0,0,2.76v44.5A2.75,2.75,0,0,0,2.76,50h24V30.67h-6.5V23.09h6.5V17.52c0-6.45,3.95-10,9.71-10a51.57,51.57,0,0,1,5.82.3V14.6h-4c-3.13,0-3.74,1.5-3.74,3.67v4.82H42l-1,7.57H34.5V50H47.24A2.77,2.77,0,0,0,50,47.24V2.74A2.75,2.75,0,0,0,47.24,0Z"/><path id="f" class="cls-2" d="M34.5,50V30.67H41l1-7.57H34.5V18.27c0-2.18.61-3.67,3.74-3.67h4V7.85a51.57,51.57,0,0,0-5.82-.3c-5.76,0-9.71,3.5-9.71,10v5.57h-6.5v7.58h6.5V50Z"/></g></g></svg>