<svg xmlns="http://www.w3.org/2000/svg" viewBox="0 0 463.78 189.31"><defs><style>.cls-1{fill:#fff;}</style></defs><title>footer_logo</title><g id="レイヤー_2" data-name="レイヤー 2"><g id="レイヤー_1-2" data-name="レイヤー 1"><polygon class="cls-1" points="16.23 189.31 0 189.31 13.68 135.75 29.91 135.75 16.23 189.31"/><polygon class="cls-1" points="22.17 189.31 5.94 189.31 10.09 173.07 26.32 173.07 22.17 189.31"/><polygon class="cls-1" points="63.58 189.31 47.35 189.31 61.03 135.75 77.26 135.75 63.58 189.31"/><polygon class="cls-1" points="189.2 189.31 172.97 189.31 184.83 142.86 201.06 142.86 189.2 189.31"/><polygon class="cls-1" points="200.75 189.31 181.08 189.31 183.58 179.54 203.24 179.54 200.75 189.31"/><polygon class="cls-1" points="238.26 189.31 222.03 189.31 233.91 142.79 250.14 142.79 238.26 189.31"/><polygon class="cls-1" points="104.06 189.31 87.83 189.31 101.51 135.75 117.74 135.75 104.06 189.31"/><polygon class="cls-1" points="83.85 159.09 88 142.86 146.97 142.86 142.82 159.09 83.85 159.09"/><polygon class="cls-1" points="180.68 159.09 184.83 142.86 250.12 142.86 245.98 159.09 180.68 159.09"/><polygon class="cls-1" points="341.13 154.88 345.28 138.65 407.18 138.65 403.04 154.88 341.13 154.88"/><polygon class="cls-1" points="207.62 142.86 223.9 142.86 212.04 189.31 195.76 189.31 207.62 142.86"/><polygon class="cls-1" points="269.9 189.31 253.67 189.31 261.39 159.09 277.62 159.09 269.9 189.31"/><polygon class="cls-1" points="281.45 189.31 261.79 189.31 264.28 179.54 283.95 179.54 281.45 189.31"/><polygon class="cls-1" points="318.97 189.31 302.74 189.31 310.46 159.09 326.69 159.09 318.97 189.31"/><polygon class="cls-1" points="257.25 175.32 261.39 159.09 322.07 159.09 317.93 175.32 257.25 175.32"/><polygon class="cls-1" points="262.46 154.88 266.61 138.65 316.46 138.65 312.31 154.88 262.46 154.88"/><polygon class="cls-1" points="316.51 154.88 320.65 138.65 336.89 138.65 332.74 154.88 316.51 154.88"/><polygon class="cls-1" points="290.14 135.75 306.43 135.75 292.75 189.31 276.46 189.31 290.14 135.75"/><polygon class="cls-1" points="362.28 182.81 346.05 182.81 352.11 159.09 368.34 159.09 362.28 182.81"/><polygon class="cls-1" points="373.89 182.81 354.23 182.81 356.72 173.05 376.39 173.05 373.89 182.81"/><polygon class="cls-1" points="377.39 168.86 357.73 168.86 360.23 159.09 379.89 159.09 377.39 168.86"/><polygon class="cls-1" points="421.54 189.31 405.31 189.31 418.24 138.65 434.47 138.65 421.54 189.31"/><polygon class="cls-1" points="349.02 154.88 353.16 138.65 407.18 138.65 403.04 154.88 349.02 154.88"/><polygon class="cls-1" points="405.31 189.28 409.46 173.05 463.78 173.05 459.64 189.28 405.31 189.28"/><polygon class="cls-1" points="380.86 135.75 397.15 135.75 383.47 189.31 367.19 189.31 380.86 135.75"/><polygon class="cls-1" points="135.1 189.31 118.88 189.31 130.74 142.86 146.97 142.86 135.1 189.31"/><polygon class="cls-1" points="162.37 175.75 146.14 175.75 156.36 135.75 172.59 135.75 162.37 175.75"/><path id="_14slogo" data-name="14slogo" class="cls-1" d="M201.71,34.56l-.62-.59-6-6c-.31-.31-.61-.63-.93-.93a.55.55,0,0,1-.16-.65,40,40,0,0,1,5.13-10,39.27,39.27,0,0,1,6.28-6.91,36.8,36.8,0,0,1,5.34-3.86A38.33,38.33,0,0,1,219,1.85,40.12,40.12,0,0,1,226.79.22a36.65,36.65,0,0,1,8.44.05c1.15.15,2.31.27,3.44.52A44,44,0,0,1,243.2,2a45.37,45.37,0,0,1,4.52,1.82,29,29,0,0,1,3.45,1.9c1.32.83,2.61,1.72,3.85,2.66a34.9,34.9,0,0,1,5.28,5,31.61,31.61,0,0,1,3.92,5.41c.91,1.65,1.81,3.32,2.58,5a27.87,27.87,0,0,1,1.9,5.77c.32,1.55.65,3.11.85,4.68s.21,2.94.29,4.41a2.94,2.94,0,0,1,0,.51l-.12.06-1.91-2-3-3-3.84-3.83c-.85-.85-1.68-1.73-2.56-2.55A7.44,7.44,0,0,1,257.15,26c-.71-1.21-1.4-2.43-2.17-3.6a21.22,21.22,0,0,0-2-2.64c-.93-1-2-2-3-2.89a25.89,25.89,0,0,0-4.66-3.31,28.27,28.27,0,0,0-5.87-2.55,27.87,27.87,0,0,0-5.36-1.1,26,26,0,0,0-6.42,0c-1.46.21-2.91.5-4.36.76-.28.05-.31.25-.31.49,0,1.75,0,3.51,0,5.27q0,6.74,0,13.47l0,8.2v1.1l.1,0,.48-.46,7.68-7.59c1.48-1.46,3-2.9,4.46-4.37,2.45-2.42,4.88-4.86,7.32-7.28l2.92-2.89a.35.35,0,0,1,.51,0A32.16,32.16,0,0,1,250.38,20a27.19,27.19,0,0,1,4.67,6.39A19.62,19.62,0,0,1,256,28.3a.63.63,0,0,1-.14.55c-.93.94-1.87,1.84-2.81,2.76l-5.19,5.11-2.49,2.43c-.08.08-.15.17-.29.33.21,0,.33,0,.45,0l9,.06c1.14,0,2.27,0,3.41,0,.28,0,.38.11.35.38-.08,1-.12,2-.26,3a20.82,20.82,0,0,1-.6,3.05c-.39,1.36-.86,2.71-1.38,4A23.74,23.74,0,0,1,253.28,55a25.23,25.23,0,0,1-4.53,5c-.86.72-1.77,1.38-2.68,2.05-.45.33-.45.31-.83-.08l-6.73-6.83-6.72-6.8-6-6.06-2.45-2.49c-.09-.09-.19-.17-.37-.32,0,.24,0,.38,0,.52,0,3.76,0,7.52-.06,11.28q0,7.84-.12,15.71a.58.58,0,0,0,.51.67,28.74,28.74,0,0,0,9.85.91,28,28,0,0,0,6.57-1.28,29.76,29.76,0,0,0,5.45-2.32,30.07,30.07,0,0,0,9-7.79,30.55,30.55,0,0,0,3.24-5.27,3.57,3.57,0,0,1,.8-.94c1.67-1.61,3.35-3.2,5-4.8s3.18-3,4.76-4.54c.56-.55,1.07-1.17,1.6-1.76l.17.1a1.53,1.53,0,0,1,.07.36c-.1,1.38-.16,2.76-.32,4.12a31.94,31.94,0,0,1-.63,3.38c-.28,1.18-.6,2.35-1,3.5s-.83,2.26-1.31,3.37a36.13,36.13,0,0,1-3.33,6.11,38.82,38.82,0,0,1-13.8,12.54,35.08,35.08,0,0,1-8.18,3.28,47.92,47.92,0,0,1-4.88,1A47.09,47.09,0,0,1,231,78a32.58,32.58,0,0,1-6.31-.52c-1.26-.24-2.53-.48-3.77-.8a35.32,35.32,0,0,1-5.33-1.84,41.47,41.47,0,0,1-4.79-2.44,39.59,39.59,0,0,1-6-4.49,38.25,38.25,0,0,1-5.8-6.58,40.36,40.36,0,0,1-4.33-8.06c-.2-.52-.39-1-.58-1.57a.54.54,0,0,1,.14-.65l6.64-6.5.91-.89a29.85,29.85,0,0,0,11,18.7,3.7,3.7,0,0,0,.09-.51q0-4.23,0-8.46c0-5.71,0-11.41.06-17.12,0-6.61,0-13.23,0-19.85a1.83,1.83,0,0,0-.09-.39,2.71,2.71,0,0,0-.34.18,27.37,27.37,0,0,0-4.06,3.92A26.31,26.31,0,0,0,205,25,27.32,27.32,0,0,0,203.62,28c-.53,1.39-1,2.84-1.39,4.27-.18.61-.27,1.26-.4,1.89Z"/><path class="cls-1" d="M151.63,108.61V108c.7,0,1.05-.18,1.05-.48s-.15-.5-.6-1.12l-2.38-3.36-.58.6v2.86c0,1.17.13,1.32,1.31,1.5v.6h-6V108c.83-.08,1.2-.53,1.2-1.5V93.74c0-.95-.35-1.38-1.2-1.46v-.6h4.68v10.8l3.21-3.21a1.81,1.81,0,0,0,.53-1c0-.33-.23-.48-.88-.58l-.6-.1v-.57h5.36v.57c-1.58.2-2.23.65-4.74,3.28l4.86,6.71c.23.3.35.38.63.38v.6Z"/><path class="cls-1" d="M163.35,109a5.72,5.72,0,0,1-5.64-6.06c0-3.65,2.43-6.13,5.74-6.13,3.15,0,5.56,2.55,5.56,6.11S166.58,109,163.35,109Zm0-11.42c-1.52,0-2,1.33-2,5.61,0,3.63.52,5,2,5s2-1.3,2-5C165.33,98.87,164.85,97.54,163.37,97.54Z"/><path class="cls-1" d="M177.5,100.45a4.49,4.49,0,0,0-1.18-2.06,2.73,2.73,0,0,0-1.88-.8A1.52,1.52,0,0,0,172.79,99c0,.86.7,1.51,2.4,2.21,2.51,1,3.46,2.13,3.46,3.91a3.65,3.65,0,0,1-3.86,3.8,8.62,8.62,0,0,1-2.7-.58,2,2,0,0,0-.58-.15c-.22,0-.37.18-.65.71h-.62V104.8h.7c.52,2.18,1.67,3.31,3.43,3.31a1.67,1.67,0,0,0,1.88-1.63c0-.8-.68-1.43-2.41-2.18-2.53-1.07-3.55-2.22-3.55-3.88a3.68,3.68,0,0,1,3.93-3.65,5.88,5.88,0,0,1,1.95.37,2.85,2.85,0,0,0,.78.18c.32,0,.47-.13.62-.5h.55v3.63Z"/><path class="cls-1" d="M190,105.81c-1.5,2.37-2.83,3.15-4.95,3.15-3,0-5.11-2.53-5.11-6,0-3.73,2.1-6.23,5.23-6.23A4.09,4.09,0,0,1,188.42,98a7.2,7.2,0,0,1,1.47,4.46h-6.31c.15,2.37.53,4.68,3,4.68,1.08,0,1.86-.48,2.88-1.7ZM186.81,101a5.65,5.65,0,0,0-.22-2.3c-.35-.75-.65-1.18-1.38-1.18-1.15,0-1.75,1-1.75,4h3.35Z"/><path class="cls-1" d="M198.11,108.61V108c.85-.1,1.15-.5,1.15-1.5v-5.94c0-1.4-.43-2.13-1.28-2.13a2.54,2.54,0,0,0-1.75.86,1.48,1.48,0,0,0-.43.6v6.61c0,.92.28,1.37,1.21,1.5v.6h-6V108c1.12-.23,1.32-.53,1.32-1.58V99.2c0-1.08-.22-1.36-1.32-1.53v-.6h4.78V99h0a3.87,3.87,0,0,1,3.56-2.18,3.24,3.24,0,0,1,3.38,3.55v6.19c0,1.12.25,1.42,1.23,1.5v.6Z"/><path class="cls-1" d="M206.1,108.61V108c2.48,0,3-.45,3-2.63V95.92c0-1.18-.27-1.76-.9-1.76a5.24,5.24,0,0,0-1.63.4l-.5.2v-.65l6.29-2.73h.45v14.28c0,1.9.4,2.3,2.68,2.35v.6Z"/><path class="cls-1" d="M227.23,105v3.61H223.6V105h-6.21v-2.83l7.84-10.79h2v10.85h1.6V105Zm-3.6-10.14-5.21,7.37h5.21Z"/><path class="cls-1" d="M237.32,100.45a4.49,4.49,0,0,0-1.17-2.06,2.73,2.73,0,0,0-1.88-.8A1.52,1.52,0,0,0,232.62,99c0,.86.7,1.51,2.4,2.21,2.51,1,3.46,2.13,3.46,3.91a3.65,3.65,0,0,1-3.86,3.8,8.56,8.56,0,0,1-2.7-.58,2,2,0,0,0-.58-.15c-.23,0-.38.18-.65.71h-.63V104.8h.7c.53,2.18,1.68,3.31,3.43,3.31a1.67,1.67,0,0,0,1.88-1.63c0-.8-.67-1.43-2.4-2.18-2.53-1.07-3.56-2.22-3.56-3.88A3.69,3.69,0,0,1,234,96.77a5.89,5.89,0,0,1,2,.37,2.81,2.81,0,0,0,.77.18c.33,0,.48-.13.63-.5H238v3.63Z"/><path class="cls-1" d="M261.67,98.17l-.45,3.35h2.15v1.83h-2.43l-.73,5.26h-1.95l.73-5.26h-2.83l-.73,5.26h-2l.72-5.26h-2.37v-1.83h2.65l.45-3.35h-2.38V96.34h2.63l.75-5.26h1.93l-.73,5.26H260l.76-5.26h1.92l-.72,5.26h2.18v1.83Zm-4.79,0-.45,3.35h2.83l.45-3.35Z"/><path class="cls-1" d="M276,108.31a18.86,18.86,0,0,0-3.33.63v-1.63a4.08,4.08,0,0,1-3.33,1.65c-2.63,0-4.53-2.45-4.53-5.88,0-3.63,2-6.31,4.81-6.31a3.74,3.74,0,0,1,3,1.55V93.74c0-1.16-.23-1.33-1.91-1.46v-.6h5.39v14.4c0,1,.32,1.38,1.47,1.45v.58Zm-3.4-8.59a2.22,2.22,0,0,0-2-1.55c-1.45,0-2.13,1.48-2.13,4.71s.63,4.68,2,4.68a2.14,2.14,0,0,0,1.65-.93,2.5,2.5,0,0,0,.48-.82Z"/><path class="cls-1" d="M284.41,109a5.72,5.72,0,0,1-5.64-6.06c0-3.65,2.43-6.13,5.74-6.13,3.15,0,5.56,2.55,5.56,6.11S287.64,109,284.41,109Zm0-11.42c-1.53,0-2,1.33-2,5.61,0,3.63.53,5,2,5s1.95-1.3,1.95-5C286.38,98.87,285.91,97.54,284.43,97.54Z"/><path class="cls-1" d="M297.18,108.56a6,6,0,0,1-.68,3.23,4.06,4.06,0,0,1-3.75,1.9c-2.06,0-3.51-1-3.51-2.5a1.47,1.47,0,0,1,1.55-1.53,1.41,1.41,0,0,1,1.48,1.35,1.72,1.72,0,0,1-.35.93,1.29,1.29,0,0,0-.23.55c0,.25.33.43.81.43.85,0,1.2-.58,1.2-1.91V99.15c0-1.08-.3-1.38-1.58-1.48v-.6h5.06Zm-1.9-13.37a1.87,1.87,0,0,1-1.91-1.93,1.92,1.92,0,0,1,1.95-2,2,2,0,0,1,1.93,2A1.91,1.91,0,0,1,295.28,95.19Z"/><path class="cls-1" d="M299.41,108.61V108c1.15-.28,1.32-.45,1.32-1.6V99.27c0-1.13-.25-1.38-1.35-1.6v-.6h4.83v9.41c0,1.08.33,1.4,1.21,1.53v.6Zm3-13.42a1.89,1.89,0,0,1-1.93-1.93,1.94,1.94,0,1,1,3.88,0A1.9,1.9,0,0,1,302.44,95.19Z"/><path class="cls-1" d="M313.61,108.61V108c.85-.1,1.15-.5,1.15-1.5v-5.94c0-1.4-.43-2.13-1.28-2.13a2.54,2.54,0,0,0-1.75.86,1.48,1.48,0,0,0-.43.6v6.61c0,.92.28,1.37,1.2,1.5v.6h-6V108c1.13-.23,1.33-.53,1.33-1.58V99.2c0-1.08-.22-1.36-1.33-1.53v-.6h4.79V99h0a3.87,3.87,0,0,1,3.56-2.18,3.24,3.24,0,0,1,3.38,3.55v6.19c0,1.12.25,1.42,1.22,1.5v.6Z"/></g></g></svg>