<svg xmlns="http://www.w3.org/2000/svg" viewBox="0 0 244.03 647.9"><defs><style>.cls-1{fill:#fff;}</style></defs><title>ikanoosushi_logo</title><g id="レイヤー_2" data-name="レイヤー 2"><g id="レイヤー_1-2" data-name="レイヤー 1"><polygon class="cls-1" points="115.44 100.75 91.65 106.67 92.16 23.19 115.94 17.27 115.44 100.75"/><polygon class="cls-1" points="124.15 98.58 100.36 104.5 100.52 79.2 124.3 73.28 124.15 98.58"/><polygon class="cls-1" points="184.82 83.48 161.04 89.4 161.54 5.92 185.33 0 184.82 83.48"/><polygon class="cls-1" points="126.69 267.16 102.9 273.08 103.34 200.69 127.12 194.77 126.69 267.16"/><polygon class="cls-1" points="143.61 262.95 114.79 270.12 114.89 254.89 143.7 247.72 143.61 262.95"/><polygon class="cls-1" points="198.59 249.26 174.8 255.18 175.24 182.68 199.03 176.76 198.59 249.26"/><polygon class="cls-1" points="103.19 225.99 103.34 200.69 199.03 176.88 198.87 202.17 103.19 225.99"/><polygon class="cls-1" points="136.74 192.38 160.6 186.44 160.16 258.83 136.3 264.77 136.74 192.38"/><polygon class="cls-1" points="164.35 349.52 140.57 355.44 140.85 308.35 164.64 302.43 164.35 349.52"/><polygon class="cls-1" points="181.28 345.31 152.46 352.48 152.55 337.26 181.37 330.08 181.28 345.31"/><polygon class="cls-1" points="236.26 331.62 212.47 337.54 212.76 290.45 236.54 284.53 236.26 331.62"/><polygon class="cls-1" points="140.7 333.65 140.85 308.35 229.78 286.22 229.63 311.51 140.7 333.65"/><polygon class="cls-1" points="140.89 301.78 141.05 276.49 214.09 258.3 213.94 283.6 140.89 301.78"/><polygon class="cls-1" points="220.09 282.07 220.24 256.77 244.03 250.85 243.88 276.15 220.09 282.07"/><polygon class="cls-1" points="174.47 263.65 198.33 257.71 197.83 341.19 173.97 347.13 174.47 263.65"/><polygon class="cls-1" points="144.84 529.6 121.05 535.52 121.53 456.57 145.31 450.65 144.84 529.6"/><polygon class="cls-1" points="121.05 535.48 121.21 510.18 200.81 490.37 200.66 515.66 121.05 535.48"/><polygon class="cls-1" points="98.26 404.81 98.41 379.51 189.13 356.93 188.97 382.23 98.26 404.81"/><polygon class="cls-1" points="139.45 438.03 115.66 443.95 115.89 406.98 139.67 401.06 139.45 438.03"/><polygon class="cls-1" points="156.46 433.8 127.64 440.97 127.73 425.75 156.55 418.57 156.46 433.8"/><polygon class="cls-1" points="156.5 412.07 127.69 419.24 127.78 404.02 156.59 396.85 156.5 412.07"/><polygon class="cls-1" points="109.82 401.93 109.97 376.63 189.13 356.93 188.97 382.23 109.82 401.93"/><polygon class="cls-1" points="149.5 362.28 173.37 356.34 172.86 439.82 149 445.75 149.5 362.28"/><polygon class="cls-1" points="160.56 178.03 136.78 183.95 137.28 100.47 161.07 94.55 160.56 178.03"/><polygon class="cls-1" points="119.93 141.12 120.08 115.83 206.49 94.32 206.34 119.61 119.93 141.12"/><polygon class="cls-1" points="206.05 166.71 182.27 172.63 182.71 100.24 206.49 94.32 206.05 166.71"/><polygon class="cls-1" points="241.06 136.88 217.28 142.81 217.66 80.47 241.44 74.54 241.06 136.88"/><path class="cls-1" d="M45.06,215.7h-.72s-1.47.1-2.13.21a2,2,0,0,1-.5-1.06,19.82,19.82,0,0,0,2.61.16h.6a5.43,5.43,0,0,1,1.14-1.32.24.24,0,0,1,.16-.05c.5,0,2.93,1.37,2.93,2.08,0,.24-.24.48-.95.64-.08.71-.08,1.71-.08,2.66,0,1.29,0,2.48,0,2.77.48,1.71,3.78,2.22,7.42,2.22a62,62,0,0,0,10.18-.93l.13,0a0,0,0,0,1,0,.05s0,.1-.18.26a7.79,7.79,0,0,0-1.69,2.14c-.34.87-.66,1.37-1.71,1.48-1.56.13-3.54.31-5.54.31-4.36,0-8.76-.89-9-5.14a28.8,28.8,0,0,1-3.43,4.22,2.43,2.43,0,0,1,.06.4c0,.34-.14.5-.32.5-.69,0-2.88-3-2.88-3.67,0-.13.14-.05.43-.13a31.76,31.76,0,0,0,3.43-1.11Zm-1.48-10.56c1.45,0,5.2.21,5.2,2.85a2,2,0,0,1-2,2,1.5,1.5,0,0,1-1.51-1.05c-.47-1.56-.68-2.48-2.11-3.62,0-.05-.08-.08-.08-.1s.06,0,.14-.06Zm18.55,8.42c.37,0,2.66,2,2.66,2.77,0,.16-.11.24-.29.24a2.08,2.08,0,0,1-.79-.24,19.16,19.16,0,0,1-3.22.76c1.9.9,3.17,2.09,3.17,3.35a1.83,1.83,0,0,1-1.72,1.9c-.69,0-1.32-.44-1.69-1.45A9.6,9.6,0,0,0,59,218.62a59.37,59.37,0,0,1-7.23,3.83c0,.08,0,.13,0,.21,0,.32-.13.61-.39.61s-.4-.13-.69-.53c-1.21-1.72-1.61-3.32-1.4-3.32l.32,0c.19,0,.34,0,1.69-.18,0-2.19,0-5,0-7.44a47.84,47.84,0,0,0-.21-6.81c0-.21,0-.34,0-.45s0-.16.13-.16a9.53,9.53,0,0,1,3.64,1.24h4c.24-.37,1.09-1.29,1.3-1.29.52,0,2.48,1.4,2.48,2,0,.31-.27.55-.77.68v.64c0,1.45.11,4,.13,4.56,0,.37.08,1,.08,1.32Zm-3.3-1.08c0-.45,0-1.61,0-2.85H54.4c0,1,0,2.08,0,3.22h4.46Zm0,1.29,0-.32H54.37v5.28c1.56-.26,3.09-.58,4.06-.79a8.58,8.58,0,0,0-2.32-1.9c-.21-.13-.37-.21-.37-.27s0,0,.13,0a13.89,13.89,0,0,1,3.62.92,18.26,18.26,0,0,0,2.08-2.32,3.59,3.59,0,0,1-1.48.37c-.71,0-1.29-.19-1.29-.9Zm-4-7.52a4.11,4.11,0,0,1-.37.19c0,.44,0,1.39-.05,2.58h4.48c0-1.11,0-2.19,0-2.77Z"/><path class="cls-1" d="M58.64,241.36a9,9,0,0,1,1.14-1.16.68.68,0,0,1,.23,0c.56,0,3.07,1.68,3.07,2.34,0,.35-.43.53-1,.58a16.53,16.53,0,0,1-3.25,5.49,25.54,25.54,0,0,0,7.39,2.93c.19,0,.32.08.32.13s-.08.08-.32.19a11.22,11.22,0,0,0-3.43,1.55,1.49,1.49,0,0,1-1.05.43c-.85,0-3.46-1.43-5.12-3.17-2.3,1.79-5.38,2.82-9.26,3.53a3,3,0,0,1-1.08.22c-.72,0-1.46-.22-1.46-.9,0-.53.16-3,.16-3.11.08-2.12.16-4.6.16-6.57v-.85c-1.45,1.24-3.66,2.67-4.17,2.67,0,0-.05,0-.05,0s.11-.18.32-.4c2.77-2.63,5.19-7.51,5.49-9.33,0-.16,0-.22.1-.22.9,0,4,1.46,4,2.19,0,.21-.29.37-1,.37h-.26c-.5.66-1.14,1.45-1.88,2.25.77.18,1,.39,1.09.52l.31-.23c2.77-1.67,3.17-4.44,3.17-6.47,0-.55,0-1-.05-1.48s-.16-1.39-.19-1.74a1.7,1.7,0,0,0-.05-.23c0-.06.05-.08.24-.08a10.8,10.8,0,0,1,3.53,1.08h1.4c.13-.19,1-1.29,1.27-1.29.55,0,2.63,1.34,2.63,1.87,0,.32-.34.63-.87.79,0,.24,0,.61,0,1,0,.64,0,1.35,0,1.85s.13.77.69.79c2.24,0,2.32,0,3.22-3.77,0-.16.08-.24.13-.24s.08.08.08.19v.21c0,2.48.45,2.87.5,2.93a1.44,1.44,0,0,1,.63,1.21c0,2.11-2.5,2.24-4.8,2.24-1.9,0-3.38-.21-3.38-2.11v-.13c0-.66.06-2.06.06-3.25,0-.81,0-1.5,0-1.71H56a2.62,2.62,0,0,1-.61.18c0,.24,0,.51,0,.74,0,3.27-1.11,6-6,7.68a1.66,1.66,0,0,1-.52.11c0,.18-.24.39-.85.58,0,.34,0,1.13,0,2.19,0,1.68,0,4.06.1,6.3.06,1.24.11,2.11.11,3.06a.73.73,0,0,1-.16.48,14.72,14.72,0,0,0,7.26-4.86,13,13,0,0,1-2-6.86c-1.13.06-2.34.08-3,.13,0,0-.29-.15-.45-1,1.24.16,5.91.22,6.23.22Zm-17.22-3.19a.1.1,0,0,1-.06,0c0-.08.11-.18.35-.42a19.4,19.4,0,0,0,4.3-7c0-.16,0-.21.07-.21,1.11,0,3.83,1.77,3.83,2.51,0,.21-.18.34-.66.34-.16,0-.34,0-.58-.05A21,21,0,0,1,41.42,238.17ZM55.9,242c-.24,0-1.19,0-2.24,0a8.83,8.83,0,0,0,3,4.94,17.07,17.07,0,0,0,2.06-5Z"/><path class="cls-1" d="M49.57,260.69c-1.11,0-5.38.11-7.28.19a1.81,1.81,0,0,1-.48-1c1.77.19,6.15.21,7.68.21h2.19c0-1.42-.08-2.4-.13-3,0-.32-.08-.45-.08-.56s0-.1.76-.1c.48,0,3.8.21,3.8,1,0,.19-.24.43-.9.64-.05.42-.07,1.55-.07,2.05h5c.66-1,1.66-2.45,2.08-2.45.71,0,3.14,2.11,3.14,2.77,0,.26-.34.29-.53.29Zm10.87,8.87H47.33a3.49,3.49,0,0,1-.64.31c0,.71,0,2,0,3.25,0,1.53,0,3,0,3.48,0,1,0,2.56,0,2.74v0c0,.95-1.37,1.19-2.08,1.19s-1.45-.21-1.45-.85v-.1c.23-2.69.39-4.7.39-7.92V271c0-.58,0-2-.16-3,0-.21,0-.34,0-.42s0-.05.08-.05a10.44,10.44,0,0,1,3.93,1.26.19.19,0,0,1,.13.11H60.23a3.93,3.93,0,0,1,1.37-1.35c.39,0,2.82,1.53,2.82,2.06,0,.32-.37.63-.92.79,0,.21,0,.45,0,.71,0,1.11.11,2.54.19,3.67,0,.45.08,1,.08,1.72,0,3.45-4.07,3.85-4.28,3.85a1.22,1.22,0,0,1-1.11-.63c-.23-.45-.81-1.19-2.64-1.77-.36-.13-.63-.24-.63-.29s.11,0,.37,0h1c1.79,0,4,0,4-1.8Zm-.56-2.72c0,.87-1.47,1.08-2.08,1.08s-1.24-.18-1.24-.87v-.13H50.49c-.05.76-.9,1.11-2.14,1.11-.68,0-1.26-.22-1.26-.82v-.11a18.73,18.73,0,0,0,.29-3.35,12.61,12.61,0,0,0-.16-1.85,3.65,3.65,0,0,1,0-.39s0-.05.42-.05a10.07,10.07,0,0,1,3.4,1.05s.06,0,.06.05h5.3a11.25,11.25,0,0,1,1.08-1.18.31.31,0,0,1,.21-.08c.48,0,2.82,1.29,2.82,2,0,.31-.31.63-.81.76l.1,1.35c0,.34.11.95.13,1.37Zm-5,9.15H51.84v.06c0,.42,0,1,0,1.16v.08c0,1-1.45,1.1-2,1.1s-1.1-.21-1.1-.76v-.16c.15-1.58.18-3.32.18-4.06a19.22,19.22,0,0,0-.16-2.56c0-.21,0-.32,0-.4s0-.08.11-.08a9.49,9.49,0,0,1,3.43,1.16l.13.11h2.27a7.16,7.16,0,0,1,1-1.16.4.4,0,0,1,.22-.08c.26,0,2.71,1,2.71,1.71,0,.35-.34.66-.84.8,0,.47.08,1.21.13,2,0,.5.13.55.13,1.08,0,1-1.37,1.16-1.92,1.16s-1.24-.16-1.24-.85Zm1.68-10.44v-2.38H51.07a1.63,1.63,0,0,1-.63.37c0,.5,0,1.48,0,2.11a4.3,4.3,0,0,0,0,.66h6.07Zm-1.68,6.7H52.36a1.6,1.6,0,0,1-.52.21v2.9H54.9Z"/><path class="cls-1" d="M58.41,299.18c0,1,.05,2.19.05,2.63s0,1.25,0,1.8c0,2.66-2.69,3.38-3.51,3.38a1.4,1.4,0,0,1-1.24-.64,4.25,4.25,0,0,0-2.27-1.71c-.31-.11-.42-.19-.42-.24s.08,0,.21,0l.35,0h.29c2.56,0,3.45-.15,3.48-1.61v-3.58H48.91c-1,0-5.2,0-6.68.13a1.6,1.6,0,0,1-.44-.92c2.26.15,7.67.18,7.67.18H55.4v-.32a11.92,11.92,0,0,0-.13-1.84.68.68,0,0,1,0-.21c0-.11.08-.11.42-.11a12.5,12.5,0,0,1,2.9.45.86.86,0,0,1-.13-.45v-.47H48.49v.55c0,.55-.45,1.16-2.19,1.16-.66,0-1.19-.21-1.19-.79v-.13c.32-3.06.39-5.39.39-6.49,0-.58,0-1.32-.13-2.06,0-.19,0-.32,0-.37s0-.11.11-.11a7.73,7.73,0,0,1,3.66,1.19l.06.05h2.71v-2.19h-2c-1.11,0-5.38.11-7.28.19a1.77,1.77,0,0,1-.47-1c1.76.18,6.14.21,7.67.21h2.11v-.53c0-.63,0-1.27-.1-1.87,0-.27,0-.4,0-.48s0-.1.71-.1,3.56.18,3.56,1c0,.24-.29.5-.95.64,0,.1,0,.63,0,1.37h4.54c.66-1,1.66-2.46,2.08-2.46.61,0,3.14,2.06,3.14,2.77,0,.27-.34.29-.52.29H55c0,.64,0,1.4,0,2.19h3.24a4.17,4.17,0,0,1,1.11-1.24.4.4,0,0,1,.24-.1c.39,0,2.77,1.26,2.77,2,0,.34-.35.63-.85.76v.43c0,1,.11,2.48.16,3.29.05,1,.11,1.48.11,2,0,1-1.45,1.19-2.11,1.19a1.65,1.65,0,0,1-.51-.08c0,.16-.18.34-.76.6v1.06H60.7a14.58,14.58,0,0,1,1.64-1.95.4.4,0,0,1,.26-.08c.34,0,2.93,1.74,2.93,2.35,0,.23-.32.29-.5.29ZM46.24,300c0-.15,1.51-.18,1.8-.18,3.77,0,4,2.08,4,2.61a2,2,0,0,1-1.74,2,1.53,1.53,0,0,1-1.4-1.14,5.66,5.66,0,0,0-2.4-3.14C46.38,300.07,46.24,300.05,46.24,300Zm5.62-10.76H49.07a1.25,1.25,0,0,1-.53.26l0,2.25h3.37Zm0,3.11H48.49V295h3.37Zm6.6,0H55L55,295h3.51Zm0-3.11H55v2.51h3.48Z"/><path class="cls-1" d="M55.21,332c0,.79-1,1.22-2.34,1.22-.77,0-1.43-.19-1.43-.87v-.08c.05-.61.11-1.85.16-3.62,0-.5,0-1.05,0-1.61-1.13,0-2.72.08-4.09.16a2,2,0,0,1-.45-1c1.35.11,3.28.16,4.57.19,0-1.88.16-4,.21-6a18.42,18.42,0,0,1-11.24,8.7s-.08,0-.08,0,.19-.21.66-.48c4-2.29,7.84-8.41,9.26-12.45h-.84c-1.06,0-5.28,0-7.18.16a1.51,1.51,0,0,1-.45-1c2.38.19,8.18.21,8.18.21h1.56c0-3.06-.08-4.77-.16-5.41,0-.29-.08-.42-.08-.5s0-.1.69-.1,3.72.21,3.72,1c0,.24-.24.51-.93.72,0,.39,0,2,0,4.32h4.56a24.34,24.34,0,0,1,2-2.77.37.37,0,0,1,.21-.08c.82,0,3.3,2.69,3.3,3.14,0,.27-.32.32-.5.32H55.74c1.53,4.48,7.26,9,10.42,10.39.24.11.4.16.4.22s-.11.08-.4.15a10.81,10.81,0,0,0-3.4,1,1.71,1.71,0,0,1-1,.37c-1.72,0-5.54-4.77-6.31-12.16H55c0,3,0,6.83.08,10.24h.15c1-2.06,1-2.19,1.32-2.19.58,0,2.06,2.16,2.06,2.48s-.29.31-.45.31H55.06c0,.53,0,1,0,1.51l.13,3.43Z"/><path class="cls-1" d="M48.86,358.76c0,.66-1,1-2,1-.71,0-1.4-.24-1.4-.82v0c0-.27.24-3.38.45-8.95a12.47,12.47,0,0,1-5.07,4.83s0,0,0-.05.16-.27.42-.56c1.64-1.71,3.8-7.15,4.33-10.23-.92,0-2.06.05-3.35.18a2.77,2.77,0,0,1-.45-1c1.24.13,3.09.18,4.2.18,0-1.42-.08-3.59-.11-3.82-2.4.23-4,.26-4,.26-.26,0-.47,0-.47-.08s.16-.13.52-.21c1.51-.34,5.44-1.82,7.23-3.62.08-.07.11-.15.19-.15.34,0,2.69,1.79,2.69,2.82a.44.44,0,0,1-.48.45,1.49,1.49,0,0,1-.74-.27,14.42,14.42,0,0,1-2,.45c.58.19.9.37.9.58s-.26.45-1,.66c0,.32-.07,1.4-.07,2.93h.18a18.11,18.11,0,0,1,1.37-2,.22.22,0,0,1,.19-.08c.63,0,2.4,1.95,2.4,2.42,0,.24-.32.27-.5.27H48.57v1.77c2.58.47,3.77,1.84,3.77,3.11a1.79,1.79,0,0,1-1.72,2c-.79,0-1.18-.87-1.24-1.58a5,5,0,0,0-.81-3.14c0,4.88.21,11.48.29,12.59Zm13.71,0c0,.69-1.18,1-2.13,1-.79,0-1.56-.24-1.56-1v0c.13-2.71.16-4.38.21-7l-1.84.4c-1,.21-4.23.92-5.78,1.4a2.53,2.53,0,0,1-.69-.9c1.88-.16,6.41-1.16,6.41-1.16l1.93-.4c.05-2.5.08-5.25.08-7.7,0-.37-.06-5.41-.13-7.31a1.41,1.41,0,0,1,0-.29c0-.13.08-.13.69-.13.89,0,3.66.34,3.66.95,0,.21-.26.42-1,.63,0,.48-.11,3-.11,6.26,0,2.13,0,4.56.06,6.91l.16-.06a19,19,0,0,1,.81-2.5c.06-.08.11-.11.16-.11,1,0,2.77,1.9,2.77,2.17s-.29.37-.45.39l-3.43.74c.08,5.25.11,5.7.21,7.63Zm-8.41-10.31a6.09,6.09,0,0,0-1.77-3.54c-.13-.1-.18-.16-.18-.18s0-.06.39-.06,4.91.14,4.91,3a2,2,0,0,1-1.95,2A1.39,1.39,0,0,1,54.16,348.45Zm.87-6.76a6,6,0,0,0-1.64-3c-.13-.1-.21-.16-.21-.21s.06,0,.16,0c.66,0,5,.14,5,3a1.81,1.81,0,0,1-1.82,1.85C55.79,343.3,55.27,342.8,55,341.69Z"/><path class="cls-1" d="M49.83,384.5c-1,0-5.91,0-7.83.19a1.94,1.94,0,0,1-.45-1c2.4.18,8.84.21,8.84.21h1.45c0-1.19,0-4,0-7.13-1.32,0-4.38,0-6.14.19a2.08,2.08,0,0,1-.45-1c1.79.13,5,.19,6.59.19v-6H48c-2.83,5.17-6.1,6.86-6.15,6.86s0,0,0,0a1.41,1.41,0,0,1,.29-.4c3.06-3.4,3.67-10.92,3.8-12.71,0-.21,0-.21.21-.21h.06c.71,0,4.58,1.26,4.58,2.11,0,.21-.29.39-1,.47a24.52,24.52,0,0,1-1.4,3.3h3.56c0-2.14,0-3.88,0-4.64s-.08-1.48-.13-2.12c0-.29-.08-.44-.08-.52s0-.13.82-.13,3.9.18,3.9,1c0,.21-.24.45-.92.66a48.06,48.06,0,0,0-.16,5.78H58.3a21.69,21.69,0,0,1,1.93-2.67.35.35,0,0,1,.21-.07c.71,0,3.37,2.42,3.37,3,0,.29-.34.37-.52.37h-8c0,1.92,0,4,0,6.06h1.92a23.37,23.37,0,0,1,1.9-2.66.37.37,0,0,1,.21-.08c.74,0,3.41,2.45,3.41,3,0,.27-.35.37-.53.37H55.27c0,3.46,0,6.41,0,7.1h4.56c.24-.4,1.67-2.72,2.09-2.72.89,0,3.4,2.53,3.4,3,0,.26-.34.34-.53.34Z"/><path class="cls-1" d="M54.08,409.54c-7,0-7.94-5.84-7.94-6.65,0-.16,0-.24.1-.24s.32.29.56.79c1,2.17,3.48,2.93,5.83,2.93a9.65,9.65,0,0,0,3.32-.55c.63-.24,1.27-.61,1.74-.8a3.53,3.53,0,0,1,1.16-.21c.82,0,2,.53,2,1.53C60.81,408.08,57.56,409.54,54.08,409.54Zm1.61-14.07c-1.14-.05-2.19-.15-3.33-.15-.42,0-.87,0-1.31.05a3.51,3.51,0,0,1-.53,0c-.29,0-.45,0-.45-.14s.18-.23.68-.47c.74-.34,1.32-.63,1.32-1a.58.58,0,0,0-.15-.35c-.53-.58-2.14-.87-3-1.69-.21-.23-.37-.37-.37-.47s.37-.13.64-.13c.5,0,1.23.13,2.19.13,1.71,0,4.37.18,5.27,1.27a6.09,6.09,0,0,0,.87.94,1.27,1.27,0,0,1,.58.9c0,.64-.87,1.08-2.16,1.08Zm3.51-3.11c-.32-.9,0-1.56-1.19-2.32-.18-.13-.29-.21-.29-.26s.47-.08.69-.08c2.34,0,3,1.47,3,2.24a1.17,1.17,0,0,1-1.13,1.24A1.09,1.09,0,0,1,59.2,392.36Zm3-.66c-.39-.92-.18-1.63-1.48-2.29-.21-.11-.31-.19-.31-.21s.68-.14,1-.14c1.77,0,3,.79,3,2.17a1.17,1.17,0,0,1-1.13,1.24A1.18,1.18,0,0,1,62.23,391.7Z"/><path class="cls-1" d="M50.15,418.79a10.18,10.18,0,0,0,.39-2.24c0-.77-.63-.93-1.16-1-.15,0-.45-.14-.45-.45a1.42,1.42,0,0,1,1.43-1.37,1.72,1.72,0,0,1,1.16.44,7.08,7.08,0,0,0,.92.66,1.36,1.36,0,0,1,.8,1.24c0,.29.18.35.44.35s.4,0,.61,0c1.21,0,1.37.66,1.37,1a2.31,2.31,0,0,1-1.16,1.72,21.63,21.63,0,0,1-3,1.9c-.87,2-2,5-2,7.12,0,.53.07,1.48.44,1.48a.65.65,0,0,0,.29-.11c1-.55,2.43-2.32,3.65-3.32A6.56,6.56,0,0,1,58,424.62a5.28,5.28,0,0,1,5.36,5.2c0,3-3.17,6-10.9,6-1.08,0-1.92-.08-1.92-.21s.39-.22,1-.32c5.31-.9,8.6-3.51,8.6-6.46,0-.24,0-3.12-2.84-3.12a4,4,0,0,0-2.75,1.16c-1.42,1.43-2.58,5.36-4.17,6.57a1.66,1.66,0,0,1-1,.37c-1.37,0-2.11-1.79-2.11-4.32a10,10,0,0,1,.55-3.25c.48-1.35,1.19-3,1.77-4.75a5.82,5.82,0,0,1-2.14.53c-1.66,0-2.56-1.45-2.56-3.06,0-.63.13-1.21.29-1.21a.85.85,0,0,1,.37.18c1.14.74,1.66,1.4,2.59,1.4a1.8,1.8,0,0,0,.5-.05Zm2.14-.74c.31-.18,1.16-.68,1.16-.95a.3.3,0,0,0-.29-.29c-.16,0-.35.11-.48.4Z"/><path class="cls-1" d="M55.56,453.06a7.43,7.43,0,0,0-2.67-5.49l-.47.53a1.89,1.89,0,0,1-1.35.63,2.08,2.08,0,0,1-1.11-.34,6.3,6.3,0,0,0-.76-.35c-.45-.21-.58-.42-.58-.68s.24-1.19.45-1.19.21.11.39.24a1.12,1.12,0,0,0,.71.21,1.91,1.91,0,0,0,.8-.16l.1,0-.13-.05c-.61-.22-.69-.16-.92-.85a.91.91,0,0,1-.08-.39c0-1.11,1.37-1.69,3.4-2.48.16-.08.24-.14.24-.22s-.79-.31-1.19-.31a2.57,2.57,0,0,0-1,.18.88.88,0,0,1-.37.08c-.13,0-.24-.05-.24-.13s.93-1.4,3.25-1.4c1.45,0,2.77.56,2.82,1.64v.18A7.75,7.75,0,0,1,60,442c2.85,0,4.51,1.85,4.51,3.33,0,2-2.48,4.19-5.43,4.19a7,7,0,0,1-3-.69c1.17,1.25,2.06,2.59,2.06,3.62,0,1.42-.82,2.24-1.53,2.24-.55,0-1-.5-1-1.61Zm-3.27-7.39c.15-.11.31-.21.47-.34.58-.43,1.21-.93,2.14-1.53a.31.31,0,0,1-.16-.06,2.71,2.71,0,0,0-.85-.13c-1.29,0-2.9.63-2.9,1.06,0,.23.37.5.79.71Zm1.42,1c.21.16.42.32.63.5a5.74,5.74,0,0,0,2.91.74c2.69,0,4.82-1.69,4.82-3.14,0-.87-.74-1.84-2.4-1.84-2.45,0-3.67,1.29-5.59,3.35Z"/><path class="cls-1" d="M42.5,469.43a5.38,5.38,0,0,0-1.77-3.37c-.13-.08-.21-.14-.21-.16a5.77,5.77,0,0,1,1-.06c3.06,0,4.43,1.3,4.43,2.64a2.18,2.18,0,0,1-2,2.14A1.5,1.5,0,0,1,42.5,469.43Zm.63,11.37c.08-1,.79-1.95.79-3.58s-.63-2.14-2.24-2.3c-.37,0-.58-.08-.58-.13a4.92,4.92,0,0,1,2.11-.42,1.59,1.59,0,0,0,1.29-1.06c1.4-2.8,4.09-8.47,4.86-9.89a7,7,0,0,1,.47-.85h0c0,.08-.11.37-.27.9-.47,1.45-3,9.29-3,13a3.79,3.79,0,0,0,0,.66A17.84,17.84,0,0,1,47,479.8c0,2.09-1,2.85-2.19,2.85a1.63,1.63,0,0,1-1.64-1.74ZM43,460c-.1-.1-.18-.13-.18-.15s0,0,.37,0c3.69.08,4.88,1.53,4.88,2.69a2.08,2.08,0,0,1-2,2.14,1.53,1.53,0,0,1-1.5-1.32A5.82,5.82,0,0,0,43,460ZM57,479.8c0-.18,0-.47,0-.79-1.68.84-6,2.69-7.28,3.14v.05c0,.34-.13.61-.34.61-.58,0-1.74-3.33-1.74-3.69,0-.08,0-.11.1-.11s.19,0,.37,0c.58,0,1.37-.06,2.25-.11,0-1.69.07-5.88.07-6.73,0-.66,0-1.08-.07-1.69,0-.23-.06-.36-.06-.44s0-.14.58-.14H51c.74,0,3.27.27,3.27.93,0,.18-.21.42-.87.63,0,.24-.08,1.79-.11,3.46h.22a8,8,0,0,1,1.16-2,.23.23,0,0,1,.18-.08c.48,0,1.71,1.16,2.19,2v-3.61s0-.37,0-.9A1.47,1.47,0,0,0,57,470c0-.08.6-.08.63-.08.6,0,3.11.18,3.11.87,0,.21-.21.42-.71.58-.08.29-.11,2.06-.13,3.77a16,16,0,0,0,2.35-3.77c0-.08,0-.11.07-.11l.19.06c.58.26,2.74,1.92,2.74,2.87,0,.16-.1.24-.29.24a1.93,1.93,0,0,1-.68-.21A32,32,0,0,1,59.86,476c0,1.45,0,2.69,0,2.69,0,.71.18,1,1.42,1,2,0,2.41-.42,3.25-3.3.08-.29.13-.44.16-.44s0,.15,0,.44c0,1,.05,2.3.37,2.54a1.34,1.34,0,0,1,.61,1.08c0,2.11-2.83,2.24-4.91,2.24S57,481.83,57,480Zm2.77-11.61H53.24v.32c0,.87-1.06,1.13-2,1.16-.77,0-1.48-.21-1.48-.84v-.14a61.09,61.09,0,0,0,.4-6.14s0-1.61-.11-2.67c0-.21,0-.31,0-.37a.07.07,0,0,1,.08-.08,9.55,9.55,0,0,1,3.75,1.09c0,.05.1.07.13.13h5.62a3.39,3.39,0,0,1,1.26-1.32c.27,0,2.85,1.19,2.85,2,0,.31-.29.6-.79.74,0,1.39.11,3.16.16,4.11s.11,1.72.11,2.24c0,.29-.14,1.16-2.2,1.16-.58,0-1.18-.21-1.18-.87Zm0-3.59H53.21c0,.88,0,1.69,0,2.22v.77h6.54c0-.45,0-.9,0-1.4Zm-6-3.35a1.39,1.39,0,0,1-.53.29c0,.58,0,1.51,0,2.46H59.8c0-.95,0-1.95,0-2.75Zm-.48,14.3c0,1.19-.05,2.35-.05,3.12l3.77-.4c0-.82,0-1.79,0-2.74a1.67,1.67,0,0,1-.32,0Z"/><path class="cls-1" d="M60.44,491.35a1.71,1.71,0,0,1,.39,0,3,3,0,0,1,1.19.24c1.9.9,2.24,1.06,2.24,1.8A1.17,1.17,0,0,1,63,494.44a2,2,0,0,1-.64-.11,11.58,11.58,0,0,0-3.35-.55c-.68,2.42-1.5,5.22-2.79,6.33a2.52,2.52,0,0,1-1.51.74c-.6,0-.92-.53-1-1.27a8.18,8.18,0,0,0-.95-2.29,2,2,0,0,1-.18-.72c0-.08,0-.13.08-.13s.21.11.39.29a2.11,2.11,0,0,0,1.38.79c.68,0,1.5-.66,2.42-3.66a14.13,14.13,0,0,0-7.17,2.74,18.42,18.42,0,0,0-.24,2.72c0,2.61.66,4.25,4.09,4.25a17.72,17.72,0,0,0,2.13-.16c.45-.06.93-.42,1.48-.48l.37,0c1.43,0,2.24.87,2.24,1.74s-.66,2-4.61,2c-7,0-7.44-5.85-7.52-8.86l-.92.63a3.62,3.62,0,0,1-1.91.61,3.14,3.14,0,0,1-3-3.19c0-.74.27-1.38.45-1.38s.24.11.42.24c.77.56,1.51,1.53,2.64,1.53a2.36,2.36,0,0,0,1.06-.24l1.29-.58c-.11-5.17-1-6-1.72-6.33-.29-.13-.47-.24-.47-.42a1.53,1.53,0,0,1,1.42-1,1.62,1.62,0,0,1,.82.21c.37.19.74.58,1,.74,1.22.69,1.51,1.5,1.51,3.62a21.49,21.49,0,0,1-.16,2.21,42.66,42.66,0,0,1,7.23-2.29,11.19,11.19,0,0,0,.16-1.77c0-1.61-.43-2.85-1.19-3.25-.29-.15-.42-.23-.42-.34a1.26,1.26,0,0,1,1.11-.58,3.14,3.14,0,0,1,3,3.38,6.84,6.84,0,0,1-.34,1.95Zm1-2c-.29-.85,0-1.48-1.13-2.22-.19-.1-.29-.18-.29-.23s.68-.14.71-.14c1.9,0,2.8,1.19,2.8,2.19a1.12,1.12,0,0,1-1.08,1.19A1.07,1.07,0,0,1,61.41,489.4Zm2.93-.63c-.37-.88-.18-1.56-1.42-2.19-.21-.11-.29-.16-.29-.22s.92-.13.95-.13c2,0,2.82,1.11,2.82,2.09a1.06,1.06,0,0,1-2.06.45Z"/><path class="cls-1" d="M58.75,515.83v4.43h.68a8,8,0,0,1,1.09-1,.63.63,0,0,1,.21-.05c.29,0,3,1.37,3,2.27,0,.31-.32.52-.93.6a15.56,15.56,0,0,1-3.14,6,23.63,23.63,0,0,0,6.62,3.16c.19.06.35.08.35.11s-.11.1-.35.18a10.32,10.32,0,0,0-3.08,1.37,1.79,1.79,0,0,1-1.19.61c-.55,0-2.77-1.21-4.64-3.24A20.54,20.54,0,0,1,47,534c-.14,0-.19,0-.19-.05s.26-.13.71-.24a15.38,15.38,0,0,0,8.5-5.17,13.49,13.49,0,0,1-2.17-7.57c-.87,0-1.79.05-2.34.1,0,0-.37-.15-.53-.94.9.1,3.27.15,4.64.18v-4.41c-1.45,0-3.32.06-4.46.11a2.29,2.29,0,0,1,.27.5.61.61,0,0,1,.1.32c0,.23-.29.23-.45.23H47.93c0,1.53,0,3.25.06,4.94,1.5-.19,2.76-.37,3.32-.5a4,4,0,0,1,.74-.11c.08,0,.13,0,.13,0,0,.22-1.87,1.27-4.17,2.33l.13,6.62v.1a3.73,3.73,0,0,1-3.61,3.46c-.34,0-.63-.13-.92-.69a4.28,4.28,0,0,0-2.14-1.66c-.34-.13-.48-.21-.48-.24s.08,0,.27,0h.24c.13,0,.29,0,.44,0,2.38,0,3.09-.56,3.09-1.43V524.8a17.17,17.17,0,0,1-1.79.68c0,.4-.22.64-.43.64-.63,0-1.53-3-1.53-3.54,0-.08,0-.08.45-.08,1,0,2.11-.13,3.3-.24V517c-1.06,0-2.27.05-3.27.16a2.2,2.2,0,0,1-.45-1c1,.11,2.51.16,3.72.19V513c0-.79-.05-1.9-.11-2.45a1.25,1.25,0,0,1,0-.24c0-.13.08-.13.42-.13.76,0,3.59.13,3.59.79,0,.21-.27.47-1,.69,0,.26,0,.87,0,1.68s0,1.85,0,3c1.08-2.06,1.43-2.11,1.53-2.11.35,0,1,.63,1.11.79,1.14.11,3.4.16,5.09.16,0-2,0-3.06-.1-4.33,0-.29-.08-.44-.08-.52s0-.11.79-.11c.95,0,3.43.21,3.43.95,0,.24-.24.48-.92.61,0,.42,0,1.84,0,3.4h2c0-.05,1.53-2.53,1.93-2.53.84,0,3.14,2.45,3.14,2.79s-.37.35-.56.35Zm-2.32,5c-.21,0-1.11,0-2.11,0a9.41,9.41,0,0,0,3.22,5.41,17.74,17.74,0,0,0,2-5.46Z"/><path class="cls-1" d="M47,559.27c0,.79-1,1.11-1.87,1.11H45c-.66,0-1.24-.21-1.24-.84v-.06c0-.74.1-1.76.16-3.06.1-2.16.18-4.8.18-6.86v-.68a13.16,13.16,0,0,1-3.38,2.32.06.06,0,0,1-.05-.05c0-.06.08-.19.27-.43a26.79,26.79,0,0,0,4.37-7.83c.14-.42.19-.69.29-1.06,0-.15,0-.18.11-.18.84,0,3.82,1.42,3.82,2.19,0,.21-.23.34-.81.34h-.35c-.5.69-1.1,1.45-1.79,2.24,1,.19,1.13.48,1.13.61s-.23.42-.87.63c0,.32,0,1.09,0,2.09,0,1.74,0,4.25.13,6.49,0,1,.08,1.85.08,2.64Zm-5.8-15.51a.05.05,0,0,1,0,0c0-.06.07-.19.29-.43a20.09,20.09,0,0,0,3.45-6.54c.05-.16,0-.21.11-.21,1,0,3.64,1.74,3.64,2.53,0,.22-.19.35-.63.35a3.9,3.9,0,0,1-.53-.06A21.81,21.81,0,0,1,41.18,543.76Zm10.6,15.17c.14-2.88.19-5.07.24-11.66-.08,0-.16.08-.26.1-1.37,6.23-4.17,8.29-4.22,8.29s0,0,0,0a.83.83,0,0,1,.11-.32,24.12,24.12,0,0,0,1.29-8.23v-.71a2.9,2.9,0,0,0,0-.29c0-.11,0-.16.21-.16a11.06,11.06,0,0,1,3,.68v-3.85c-.93,0-1.82,0-3.3.16a1.88,1.88,0,0,1-.45-.95c1.19.16,2.8.18,3.75.21a44.83,44.83,0,0,0-.13-5c0-.16-.06-.27-.06-.32s0-.08.4-.08a10,10,0,0,1,3.4.61l.05,0H56c1.08,0,2.8.45,3.14,1.61.71,0,.95,0,.95,0h.21s1.45-2.58,1.9-2.58c.77,0,3,2.24,3,2.85,0,.29-.32.34-.5.34l-3.41,0c-.79,0-1.26,0-2.13.08A1.28,1.28,0,0,1,58,540.81c.18.1,1.55,1,1.55,1.68,0,0,0,.24-.47.24H54.9v3.51l.13,0c2.08.79,4,2.24,4,4.56s-1.59,2.24-1.69,2.24c-.61,0-1.22-.45-1.27-1.63,0-1.88,0-3.56-1.21-5,0,4.23.08,8.79.13,10.21,0,.93.1,1.46.13,2.14,0,.85-1.11,1.08-2.24,1.08-.69,0-1.14-.18-1.14-.82ZM56,542.15a7.43,7.43,0,0,1,1.14-1.58,1.07,1.07,0,0,1-.29-.48,4.36,4.36,0,0,0-.93-2.27c-.08.19-.34.35-.92.48,0,.24-.05,1.77-.05,3.85Zm7.26,14.41c0,2.55-2.85,3.58-3.8,3.58a1,1,0,0,1-1-.79c-.32-.92-1.56-1.45-2.35-1.79-.32-.16-.47-.24-.47-.27s.08,0,.18,0h.32c.24,0,.5,0,.76,0,2.27,0,3.33-.15,3.33-1.42V548c0-.77-.06-1.77-.11-2.35-.84,0-1.79.08-2.61.16,0,0-.29-.13-.45-.93,1.51.14,3.62.14,3.62.14h.65c1.35-2.3,1.59-2.59,1.8-2.59.71,0,3,2.43,3,2.9,0,.24-.32.29-.5.29H62.92l.31.11c.27.08.56.21.56.39s-.19.37-.74.64c0,.39,0,1,0,1.66,0,2.08.13,5.25.21,8Z"/><path class="cls-1" d="M55.21,585.44c0,.79-1,1.21-2.34,1.21-.77,0-1.43-.18-1.43-.87v-.08c.05-.61.11-1.85.16-3.61,0-.5,0-1.06,0-1.61-1.13,0-2.72.08-4.09.16a2.05,2.05,0,0,1-.45-.95c1.35.1,3.28.15,4.57.18,0-1.87.16-4,.21-6a18.46,18.46,0,0,1-11.24,8.71s-.08,0-.08,0,.19-.21.66-.47c4-2.3,7.84-8.42,9.26-12.46h-.84c-1.06,0-5.28,0-7.18.16a1.48,1.48,0,0,1-.45-1c2.38.18,8.18.21,8.18.21h1.56c0-3.06-.08-4.78-.16-5.41,0-.29-.08-.42-.08-.5s0-.11.69-.11,3.72.21,3.72,1c0,.24-.24.5-.93.71,0,.4,0,2.06,0,4.33h4.56a23.43,23.43,0,0,1,2-2.77.31.31,0,0,1,.21-.08c.82,0,3.3,2.69,3.3,3.14,0,.26-.32.31-.5.31H55.74c1.53,4.49,7.26,9,10.42,10.4.24.1.4.16.4.21s-.11.08-.4.16a10.3,10.3,0,0,0-3.4,1,1.78,1.78,0,0,1-1,.37c-1.72,0-5.54-4.78-6.31-12.17H55c0,3,0,6.84.08,10.24h.15c1-2.06,1-2.19,1.32-2.19.58,0,2.06,2.16,2.06,2.48s-.29.32-.45.32H55.06c0,.53,0,1,0,1.5l.13,3.43Z"/><path class="cls-1" d="M13.46,318.46c-7,0-8-5.83-8-6.65,0-.15,0-.23.11-.23s.32.29.55.79c1,2.16,3.49,2.93,5.83,2.93a9.74,9.74,0,0,0,3.33-.56c.63-.24,1.26-.6,1.74-.79a3.25,3.25,0,0,1,1.16-.21c.82,0,1.95.53,1.95,1.53C20.18,317,16.94,318.46,13.46,318.46Zm1.6-14.06c-1.13,0-2.18-.16-3.32-.16-.42,0-.87,0-1.32.05a3.45,3.45,0,0,1-.53,0c-.29,0-.44,0-.44-.13s.18-.24.68-.48c.74-.34,1.32-.63,1.32-1a.55.55,0,0,0-.16-.34c-.53-.58-2.13-.87-2.95-1.69-.21-.24-.37-.37-.37-.48s.37-.13.63-.13c.5,0,1.24.13,2.19.13,1.71,0,4.38.19,5.28,1.27a5.75,5.75,0,0,0,.87.95,1.29,1.29,0,0,1,.58.9c0,.63-.87,1.08-2.17,1.08Z"/><path class="cls-1" d="M19.31,329.06a5.56,5.56,0,0,0-5.38-4.19c.77.63,1,2.13,1,3.24C14.88,334,9.39,341,6.09,341a1.43,1.43,0,0,1-1.26-.61,7.06,7.06,0,0,1-.4-1.32c-.5-1.53-2.06-2.4-2.06-5.83,0-4.61,5.81-9.42,10.93-9.42a9.36,9.36,0,0,1,7.91,4.38,20.59,20.59,0,0,1,1.08,2.33,9.57,9.57,0,0,1,1.09,4.19c0,4.72-4.67,7.68-10.56,7.68-.42,0-3.56-.13-3.56-.45,0-.08.29-.13.82-.16,5.25-.26,10.08-2.9,10.08-8.15a9.61,9.61,0,0,0-.29-2.35Zm-6.46-4.14a6.58,6.58,0,0,0-2.75,1c-2.26,1.51-5.25,4.51-5.25,8.39,0,1.64.51,3,1.53,3,2.25,0,7.15-6.94,7.15-10.76,0-.29-.07-1.4-.47-1.53Z"/><path class="cls-1" d="M10.5,348.9c-.26,0-.37,0-.37-.27a1.87,1.87,0,0,1,1.9-1.95,2.51,2.51,0,0,1,2,1,3.73,3.73,0,0,0,.64.58,1.21,1.21,0,0,1,.58,1.05,3.94,3.94,0,0,1-.16.92c-.29,1-.48,1.85-.61,2.54a8.86,8.86,0,0,0,2.67-.56,2.08,2.08,0,0,1,1.13-.42,1.6,1.6,0,0,1,1.06.45,11.47,11.47,0,0,0,1,.66c.5.32.74.63.74,1a1.57,1.57,0,0,1-.29.79c-.24.37-.45.55-.45,1-.08,3.77.13,10.32-4.75,11.19a4.88,4.88,0,0,1-1,.1,1.35,1.35,0,0,1-1.4-1,7.34,7.34,0,0,0-2.38-2.46c-.18-.1-.31-.26-.31-.34A14.86,14.86,0,0,1,1,367.71c-.21,0-.4,0-.4-.08s.13-.11.4-.19c5.94-1.58,9.18-7.2,10.29-12.45-1,.24-2.48.63-3,.82a4.36,4.36,0,0,1-1.61.31,2.07,2.07,0,0,1-2.29-2,1.23,1.23,0,0,1,.52-1.06s.06,0,.08,0a.66.66,0,0,1,.35.11,2.29,2.29,0,0,0,1.5.58,1.2,1.2,0,0,0,.34,0c1.53-.21,2.93-.47,4.41-.66a19.26,19.26,0,0,0,.13-2.11c0-1.63-.18-2.05-.9-2.05Zm3.64,5.72a16.59,16.59,0,0,1-3.61,8.52,1.22,1.22,0,0,1,.34.05,9.7,9.7,0,0,0,3.14.72c1.56,0,3.35-.35,3.59-8.81,0-.4-.06-.8-.48-.8a26.2,26.2,0,0,0-3,.27Z"/><path class="cls-1" d="M16.7,378.39c-.05.66-.08,1.26-.08,1.87,0,.34,0,.69,0,1,.05,2.16.47,5.36.47,7.49,0,3.06-1.53,3.8-2.4,3.8A1.81,1.81,0,0,1,13,391c-.39-1.45-1.24-2-2.87-3.49a.33.33,0,0,1-.11-.21.07.07,0,0,1,.08-.08.32.32,0,0,1,.21.06,12.63,12.63,0,0,0,3.25,1.1c.76,0,.87-.73.87-3.21,0-1,0-2.17-.05-3.41a4.42,4.42,0,0,1-.56.9c-4,5-11.5,7.12-13.14,7.12-.18,0-.29,0-.29-.08s.08-.13.29-.18c3.62-1.14,7.42-4.17,10.79-8.34a1,1,0,0,0,.27-.66.89.89,0,0,0-.45-.71c-.08-.05-.13-.11-.13-.16a1.41,1.41,0,0,1,1.29-.92,1.63,1.63,0,0,1,1.45,1.32,1.47,1.47,0,0,0,.29.39.83.83,0,0,1,.13.16l-.08-2.14a21.73,21.73,0,0,0-5,.88,10.9,10.9,0,0,1-2.95.73,2.44,2.44,0,0,1-2.4-2,.89.89,0,0,1,.66-.9.66.66,0,0,1,.31.16,4.73,4.73,0,0,0,1.9.6,1,1,0,0,0,.24,0c1.64-.27,3.75-.74,5.73-1l1.37-.19-.06-1.63c0-.74-.26-1.32-1.1-1.45-.43-.08-.69-.19-.69-.58a1.73,1.73,0,0,1,1.77-1.82,2.46,2.46,0,0,1,1.74.76,2.94,2.94,0,0,0,.84.58,1.29,1.29,0,0,1,.66,1.24,5.76,5.76,0,0,1-.16,1.08c-.1.5-.21,1-.29,1.48a4.27,4.27,0,0,0,1.46-.45,1.44,1.44,0,0,1,.84-.21,2.36,2.36,0,0,1,1.08.27,7.16,7.16,0,0,0,1.19.44c.79.27,1.13.77,1.13,1.22s-.52,1.1-1.53,1.1-2.11-.23-3.32-.31Z"/><path class="cls-1" d="M14.54,407.82a18,18,0,0,1-13,6.65c-.24,0-.37,0-.37-.08s.26-.21.71-.31c9.63-2.14,12.85-13,12.85-13.86,0-.29-.18-.44-.53-.44A13,13,0,0,0,10,401a4.55,4.55,0,0,1-1.79.43,2.44,2.44,0,0,1-2.59-2.14c0-.58.47-1.06.69-1.06s.21.16.31.21a2.38,2.38,0,0,0,1.45.43,17.93,17.93,0,0,0,3.09-.5c2.51-.48,3.54-.43,3.93-.8a1.73,1.73,0,0,1,1.14-.5,2.12,2.12,0,0,1,1.13.4c.26.16.74.39.95.5.66.34.87.71.87,1.05,0,.61-.63,1.17-.95,1.59a3.47,3.47,0,0,0-.32.76,20.49,20.49,0,0,1-3,6l.58,0c2.35,0,6.36.87,6.36,4.32A2.17,2.17,0,0,1,19.76,414,1.81,1.81,0,0,1,18,412.23a4.92,4.92,0,0,0-3.24-4.33Z"/><path class="cls-1" d="M18.47,426.39a14.77,14.77,0,0,0,2.21-.37,5.83,5.83,0,0,1,1.32-.13c1.9,0,2.88,1,2.88,2.14,0,2.16-2.51,2.79-3.72,3.08a42.17,42.17,0,0,0-7.2,1.95,13.42,13.42,0,0,0-.08,1.53,7.4,7.4,0,0,0,.13.8,4,4,0,0,1,.05.58c0,1-.53,1.58-1.13,1.58-.87,0-1.74-1.11-1.74-2.85,0-.21,0-.42,0-.63-.79.47-1.87,1.21-1.87,2.21,0,.82,1.08,1.85,3.11,1.85a4.59,4.59,0,0,0,1.69-.29c.24-.08.85-.58,1.4-.58,1.37,0,2.08.74,2.08,1.48,0,1.42-2.32,2.24-4.4,2.24-3.22,0-5.38-2-5.38-3.67s1.74-3,3.45-4c.29-1.61.93-3.33,1-4.83v-.26c0-1-.45-1.69-1.19-1.69-1,0-2.48,1.21-3.93,4.38a10.51,10.51,0,0,0-.39,1c-.43,1.32-1.32,2-2,2s-1.35-.89-1.35-1.79a2.1,2.1,0,0,1,.42-1.29l.9-1.11c.74-.92,3.59-3.54,4.48-5.59a6.8,6.8,0,0,1-2.08.45,3.14,3.14,0,0,1-3.06-3.41c0-.66.1-.76.21-.76a.43.43,0,0,1,.24.1c1.32,1.06,2.08,1.82,3,1.82a8.51,8.51,0,0,0,2.22-.45,2.42,2.42,0,0,0,0-.37c0-.58-.18-1-.79-1s-1-.19-1-.51a1.74,1.74,0,0,1,1.71-1.53,2.87,2.87,0,0,1,1.72,1.14c.18.34.95.18,1.84.34.48.11.9.42.9.87,0,.85-1.29,1.74-3.38,2.8a22.76,22.76,0,0,1-1.26,2.72,3.88,3.88,0,0,1,2-.61c2.29,0,2.77,2.4,2.77,2.95a11.06,11.06,0,0,1-.16,1.38c1.13-2.09,2.21-3.67,4.25-3.67Zm-7-5.25a1.28,1.28,0,0,0,.21-.13.55.55,0,0,0,.24-.4c0-.18-.13-.32-.21-.32s-.1.06-.13.16Zm9.18,6c-.21,0-.42,0-.6,0a11.35,11.35,0,0,1-1.4-.1,1.54,1.54,0,0,0-.37,0c-2.19,0-3.59,2.43-4.12,5,2.72-1.53,5.49-2.24,6.89-3.38.53-.42.74-.73.74-1s-.42-.55-1-.55Z"/><path class="cls-1" d="M15,448.12c-2.32,0-3.27,1.46-3.27,3.41a9.39,9.39,0,0,0,.74,3.43c.47,1.24,1,1.69,2,1.69,1.64,0,2.61,1,2.61,1.84,0,.58-.63,1.48-2,1.48a4.2,4.2,0,0,1-.77-.08c-5-1.24-4.72-8.63-9-11.74C5,448,3.64,447,3.64,446c0-.11,0-.16.11-.16s.26.13.55.35A10.56,10.56,0,0,0,6,447a10.08,10.08,0,0,1,5.2,4.75v-.08c0-2.27,1-3.91,3.85-4.25a6.76,6.76,0,0,0,2.82-.84,3.58,3.58,0,0,1,2-.72A2.26,2.26,0,0,1,22.32,448a4.52,4.52,0,0,1-1.74,3.17c-1.64,1.37-4.25,2.24-6.39,3.22a2.16,2.16,0,0,1-.73.24c-.11,0-.16,0-.16-.11s.18-.34.55-.63c1.14-.87,3.64-2.3,4.41-3.46a3.62,3.62,0,0,0,.71-1.79.68.68,0,0,0-.77-.74l-.26,0a12.71,12.71,0,0,1-2.11.15ZM13.77,466.7c-4.43,0-7.75-2.8-7.75-5.65a4.8,4.8,0,0,1,3.08-4.14c.11,0,.19,0,.19.13s-.06.21-.24.4a4,4,0,0,0-1.53,2.77c0,2,2.53,3.53,5.22,3.53a7.72,7.72,0,0,0,3-.6,5.09,5.09,0,0,1,2.06-.66c1,0,1.93.6,1.93,1.45C19.71,465.85,16.28,466.7,13.77,466.7ZM21,445.17c-.29-.85,0-1.48-1.11-2.19-.19-.13-.29-.21-.29-.26s.61-.08.66-.08c1.61,0,2.72.92,2.72,2.13a1.08,1.08,0,0,1-1,1.16A1,1,0,0,1,21,445.17Zm2.95-.34c-.37-.88-.16-1.53-1.37-2.17-.19-.1-.29-.16-.29-.21s.45-.13.95-.13c2.58,0,2.74,1.85,2.74,2.06A1.1,1.1,0,0,1,25,445.56,1.06,1.06,0,0,1,24,444.83Z"/><path class="cls-1" d="M6.23,492.54c-.58,0-1.22,0-1.22-.15s.24-.16.72-.24c6.43-1.16,10.63-4.54,10.63-8.89,0-.95-.71-5.81-2.85-5.81a2.7,2.7,0,0,0-2,1.38,15.16,15.16,0,0,1-2.13,3.06,2.77,2.77,0,0,1-1.82.71,2.26,2.26,0,0,1-2.27-2.38,3,3,0,0,1,0-.42c.11-.74.58-1.05.9-1.71.08-.19.21-.32.32-.32s.13.08.15.29a1,1,0,0,0,1.09.92.77.77,0,0,0,.5-.13c.74-.55,1.55-1.34,2.35-1.85A6,6,0,0,1,13.77,476a4.56,4.56,0,0,1,4,2.66c1.61,2.88,1.93,4.38,1.93,5.55C19.71,488.69,15.14,492.54,6.23,492.54Zm7-18c-.66,0-1.42.15-2,.21a4.62,4.62,0,0,1-.5,0c-.24,0-.4,0-.4-.13s.16-.26.61-.53l1.19-.63c.37-.21.58-.29.58-.45a.34.34,0,0,0-.14-.26,3.45,3.45,0,0,0-1.84-.71c-1.24-.27-1.61-.72-1.61-.82s.29-.13.82-.21a5.6,5.6,0,0,0,.84-.16,9.2,9.2,0,0,1,2.06-.27c3.61,0,4.06,2.75,4.06,2.93,0,.74-.71,1.14-1.69,1.14-.71,0-.79-.13-1.71-.13Z"/><path class="cls-1" d="M8.52,511.67a3.16,3.16,0,0,1-2.35,1.26,1.53,1.53,0,0,1-1.66-1.45,2.41,2.41,0,0,1,.82-1.63A4,4,0,0,0,6,509c1.66-3.22,6.56-7.5,7.3-9.34a.58.58,0,0,0,.06-.29.41.41,0,0,0-.43-.43,1,1,0,0,0-.34.08c-.69.32-1.4,1.22-2.11,1.64a2.59,2.59,0,0,1-1.37.39A2,2,0,0,1,7,499c0-.74.32-1.56.56-1.56a.58.58,0,0,1,.21.08,4.25,4.25,0,0,0,2.06.79,3.72,3.72,0,0,0,1.53-.44c.79-.37,1.42-1.35,2.43-1.35a1.75,1.75,0,0,1,.89.24c.48.26,1,.84,1.4,1,.74.31,1,.74,1,1.18,0,.87-1,1.8-1.37,2.17-2,2-8.1,6-8.89,8.47a.27.27,0,0,0,0,.15.49.49,0,0,0,.53.45c2.16-.1,3.11-2.21,7.86-3.88a8,8,0,0,1,2.64-.47c2.3,0,4.17,1.13,4.17,2.59a1.34,1.34,0,0,1-1.48,1.34,2.75,2.75,0,0,1-.71-.1c-1.56-.43-1.85-1.32-3.69-1.32a9.37,9.37,0,0,0-2.09.26s-.05,0-.23.05c-2.59.53-4.62,2.53-4.62,4.22,0,.85.5,2.11,3.51,2.11a9.72,9.72,0,0,0,2-.18,8.07,8.07,0,0,1,1.47-.16c2.22,0,2.3,1.37,2.3,1.64,0,1-1,2-3.3,2-4.83,0-7-2.27-7-4.54a4.38,4.38,0,0,1,1-2.64Zm9.63-13.19c-.32-.9,0-1.56-1.19-2.33-.18-.13-.29-.21-.29-.26s.48-.11.77-.11c2.35,0,2.87,1.61,2.87,2.27a1.15,1.15,0,0,1-1.13,1.22A1.08,1.08,0,0,1,18.15,498.48Zm3-.66c-.4-.93-.19-1.64-1.48-2.3-.21-.11-.32-.18-.32-.21a2.49,2.49,0,0,1,1.06-.16c2.9,0,2.93,2.06,2.93,2.19a1.19,1.19,0,0,1-1.14,1.24A1.14,1.14,0,0,1,21.19,497.82Z"/><path class="cls-1" d="M13.46,542.13c-7,0-8-5.83-8-6.65,0-.15,0-.23.11-.23s.32.29.55.79C7.18,538.2,9.66,539,12,539a9.51,9.51,0,0,0,3.33-.56c.63-.23,1.26-.6,1.74-.79a3.25,3.25,0,0,1,1.16-.21c.82,0,1.95.53,1.95,1.53C20.18,540.68,16.94,542.13,13.46,542.13Zm1.6-14.06c-1.13-.05-2.18-.16-3.32-.16-.42,0-.87,0-1.32.06a5.16,5.16,0,0,1-.53,0c-.29,0-.44,0-.44-.13s.18-.24.68-.48c.74-.34,1.32-.63,1.32-1a.55.55,0,0,0-.16-.34c-.53-.58-2.13-.87-2.95-1.69-.21-.24-.37-.37-.37-.47s.37-.14.63-.14c.5,0,1.24.14,2.19.14,1.71,0,4.38.18,5.28,1.26a5.75,5.75,0,0,0,.87,1,1.31,1.31,0,0,1,.58.9c0,.63-.87,1.08-2.17,1.08ZM18.57,525c-.31-.9,0-1.56-1.18-2.32-.19-.14-.29-.22-.29-.27s.47-.08.68-.08c2.35,0,3,1.48,3,2.25a1.18,1.18,0,0,1-1.14,1.24A1.11,1.11,0,0,1,18.57,525Zm3-.66c-.4-.93-.19-1.64-1.48-2.3-.21-.1-.32-.18-.32-.21s.69-.13,1-.13c1.76,0,3,.79,3,2.16a1.17,1.17,0,0,1-1.14,1.24A1.16,1.16,0,0,1,21.61,524.3Z"/><path class="cls-1" d="M.61,570.46c-.37,0-.61,0-.61-.1s.16-.11.61-.22a20.48,20.48,0,0,0,7.89-3.45,10.93,10.93,0,0,0,1.08-1.06c.1-.08.1-.16.18-.16.5,0,3.3,1.75,3.3,2.33,0,.21-.18.34-.56.34a2.91,2.91,0,0,1-.71-.13C7.23,570.46.71,570.46.61,570.46ZM20.5,565c0,.95-1.32,1.16-2.22,1.16-.58,0-1.24-.21-1.24-.87H8.47v.1c0,1-1.35,1.19-2.27,1.19-.71,0-1.29-.21-1.29-.79v-.13c.26-1.85.39-5.81.39-6.47V559a17.58,17.58,0,0,0-.1-1.91c0-.18-.06-.31-.06-.36s0-.08.45-.08a10.24,10.24,0,0,1,3.57.81l.05.06h7.73a5.9,5.9,0,0,1,1-1,2.56,2.56,0,0,1-.58,0h-.27c-.53,0-1.08-.16-1.08-.76v0H9.47c-.13.9-1.37,1-2,1s-1-.22-1-.8v-.1l.11-1.08a11.17,11.17,0,0,0,.08-1.24v-.29c0-.37,0-.9-.06-1.3,0-.21,0-.31,0-.37s0-.07.08-.07l.34,0a9,9,0,0,1,3.06,1s.06.06.08.06h5.78a12.52,12.52,0,0,1,1-1.14.37.37,0,0,1,.21-.08,5.69,5.69,0,0,1,2.48,1.48s.05,0,.08.05a9.61,9.61,0,0,0,1-2.16H5.43a4.51,4.51,0,0,1,.11,1A3.05,3.05,0,0,1,2.69,555a1.76,1.76,0,0,1-1.85-1.58,1.56,1.56,0,0,1,.85-1.32c1.29-.8,2.5-1.82,2.56-3.33,0-.16,0-.21,0-.21a3.21,3.21,0,0,1,1,1.64H7.68a1.25,1.25,0,0,1-.66-.66c-.53-1.19-.32-1.93-1.64-2.91-.1-.05-.13-.1-.13-.13s.08-.05.26-.05h.35c1.53,0,4.09.37,4.09,2.16a1.74,1.74,0,0,1-1.22,1.59h2.56c0-.37,0-1.14,0-1.88s0-1-.08-1.66c0-.32-.08-.45-.08-.55s0-.11.79-.11,3.51.24,3.51.95c0,.24-.27.48-.95.69-.05.45-.05,1.95-.05,2.56H16a18.87,18.87,0,0,0,.82-3.91,1.43,1.43,0,0,0,0-.21s0,0,.08,0c.79,0,4,1.08,4,1.82,0,.24-.32.37-.87.37h-.26a16.31,16.31,0,0,1-2.88,2h3.61A10.23,10.23,0,0,1,21.5,549l.16,0c.55,0,3.19,1.9,3.19,3.19,0,.5-.31.92-1.13.92A3.15,3.15,0,0,1,23,553a4.24,4.24,0,0,0-1-.1,5.31,5.31,0,0,0-2.35.55,1.29,1.29,0,0,1-.77.5,7,7,0,0,0,.06.71,4,4,0,0,1,.08.74v.06a.94.94,0,0,1-.69.89.24.24,0,0,1,.13,0c1.11.39,2.61,1.66,2.61,2.08s-.31.53-.81.66v.58c0,1,.07,1.88.15,3.46,0,.74.11,1.21.11,1.74Zm-3.43-4.54H8.47v1.71h8.6Zm0,2.35H8.47v1.84H17c0-.42,0-.87,0-1.39ZM9,558.11l-.48.24c0,.32,0,.85,0,1.43h8.57c0-.61,0-1.19,0-1.67Zm7-5h-6a1.5,1.5,0,0,1-.6.35v1.18l0,.45H16Zm4.49,17.15a2,2,0,0,1-1.61-1c-.82-1-3.78-2.56-5.41-3-.21,0-.32-.08-.32-.13s.24-.11,1.58-.11c6,0,7.58,1.14,7.58,2.48A1.69,1.69,0,0,1,20.53,570.3Z"/><path class="cls-1" d="M6.65,587.87c0-.4,0-.77,0-1.3H4.83v.9c0,.56,0,1.48,0,1.61v.08c0,.71-1.29,1.05-2,1.05s-1.22-.26-1.22-.76v-.11c0-.23.34-4,.34-12,0-.63-.05-1.34-.1-2.13a2.31,2.31,0,0,0,0-.29s0,0,.06,0a9.23,9.23,0,0,1,3.4,1.13l.08.06h1a3.29,3.29,0,0,1,1.27-1.27c.55,0,2.61,1.4,2.61,1.95,0,.32-.31.61-.84.74,0,.16,0,.37,0,.66,0,2.16.24,7.57.29,8.07,0,.24.11,1,.11,1.19,0,1.06-1.64,1.16-2,1.16-.56,0-1.19-.13-1.19-.74ZM18,595.41c0,.74-1.08,1.16-2.09,1.16-.81,0-1.58-.21-1.58-1v-.06c.11-1.82.19-4.61.27-7.12-4.36,6-12.22,6.91-12.35,6.91s-.21,0-.21-.05.18-.16.71-.32c4.72-1.5,9.13-6.09,11.24-12.05-1.24,0-2.72.08-3.64.16a2.25,2.25,0,0,1-.45-1c1,.16,3.35.18,4.8.21,0-1.48,0-2.9,0-4.17-1.06,0-2.46.08-3.8.19a3,3,0,0,1-.45-1c1.29.08,3,.13,4.25.16,0-2.4-.11-4.33-.13-4.64s-.06-.29-.06-.35.4-.1.48-.1,3.67.13,3.67,1c0,.21-.24.48-.93.66-.05.32-.05,1.64-.08,3.49h1.59c1.42-2.25,1.71-2.27,1.87-2.27a.66.66,0,0,1,.32.08,7.15,7.15,0,0,1,2.61,2.45c0,.26-.37.34-.56.34H17.7c0,1.24,0,2.64,0,4.17h2.43a21.37,21.37,0,0,1,1.74-2.48.43.43,0,0,1,.21-.05c.84,0,3.11,2.48,3.11,2.79s-.34.35-.55.35H18.44c1.32,4.27,5.52,8,7.26,9.1.15.11.26.18.26.24s-.08.1-.32.16a9.27,9.27,0,0,0-3.08.79,1.82,1.82,0,0,1-.77.21,1.08,1.08,0,0,1-.82-.35c-1.34-1.45-2.5-3.85-2.85-10.15h-.39c0,3.61.1,7.65.18,10.58,0,.87.08,1.26.11,1.9ZM6.7,586c0-1.53,0-5.81,0-8v-1.22H5.28a2,2,0,0,1-.48.27c0,.68,0,5.54,0,9Z"/><path class="cls-1" d="M11.13,606.83a13.68,13.68,0,0,1-2.08.24c-2.24,0-3.06-1.66-3.06-3.64,0-.11,0-.82.16-.82s.23.1.42.29c1.35,1.26,1.69,1.71,2.82,1.71h.27a8.12,8.12,0,0,0,1.53-.16c0-.36,0-.71,0-1.05-.05-1.42-.08-1.9-.76-2.27a.74.74,0,0,1-.45-.66,1.21,1.21,0,0,1,1.29-1,1.18,1.18,0,0,1,.76.27c.64.45,1.32.26,1.69,1.29.16.47,1.06.84,1.82.84l.29,0c.08,0,.13,0,.21,0a1.07,1.07,0,0,1,1.09,1.13c0,1.38-2,2.7-4.28,3.43l-.16,1.43a11.84,11.84,0,0,1,2.69-.32A8,8,0,0,1,23.56,615c0,5-7.52,7.26-13.69,7.26-1,0-1.35-.11-1.35-.21s.32-.21,1-.29c4.54-.53,10.66-3.67,10.66-8.1a5.13,5.13,0,0,0-5.33-5.17,7.36,7.36,0,0,0-2.25.37,4.18,4.18,0,0,0,0,.5.14.14,0,0,0,.1.05,1.62,1.62,0,0,1,.95,1.58,7.11,7.11,0,0,1-1.13,3.14c0,1.3.1,2.56.21,3.8.11,1.61-.5,2.62-1.37,2.62-.71,0-1.45-.8-1.45-2.33a5.29,5.29,0,0,1,.1-1.08,1.25,1.25,0,0,1,.06-.29c-2.22,3-4.28,4.54-5.47,4.54-.71,0-1-.55-1-1.16a2.94,2.94,0,0,1,0-.45,4.26,4.26,0,0,0,.11-1,3.71,3.71,0,0,0-.26-1.53,1.88,1.88,0,0,1-.37-1.11c0-2.16,3.53-6.31,8-7.92ZM11,609.49c-2.37,1.24-5.59,4.62-5.59,6.84,0,.79.34,1.29.66,1.29.81,0,3.24-2.43,4.53-4.41C10.71,612,10.84,610.71,11,609.49Zm3.8-6.67c0-.29-.48-.66-.85-.66s-.31,0-.68,1.74C14.35,603.45,14.75,602.92,14.75,602.82Z"/><path class="cls-1" d="M5.28,639.22a6.63,6.63,0,0,0-1-.87,2.77,2.77,0,0,1-1.13-2.19c0-1.16.71-3.38,2.56-3.38a2.91,2.91,0,0,1,1.79.66c0-.76.08-1.53.13-2.32a4.29,4.29,0,0,0,0-.61,5.6,5.6,0,0,0-.82-3.21.44.44,0,0,1-.13-.35,1,1,0,0,1,1-.68A1.49,1.49,0,0,1,9,627a4.68,4.68,0,0,1,1.19,2.64,4.56,4.56,0,0,1-.32,1.53,22.79,22.79,0,0,0-1,4.17,37.33,37.33,0,0,1,4.49-4.59c.42-.29,1.13-1.58,2.45-1.58a4.7,4.7,0,0,1,3.91,5c0,2.61-1.32,5.48-1.32,7.49A2.12,2.12,0,0,0,20.66,644c1.9,0,3.88-2.35,4.61-4.61.19-.61.32-.82.37-.82s.08.16.08.34c0,2.14-2.21,7.41-6.57,7.41a3.76,3.76,0,0,1-3.77-4c0-2.79,1.87-6.22,1.87-8.78,0-1.9-1-2.74-1.79-2.74-1.21,0-2.85,1.13-6.86,7.33,0,.53,0,1.08,0,1.64a15.65,15.65,0,0,0,.66,4.64,7,7,0,0,1,.16,1.32c0,1.47-.66,2.16-1.35,2.16-1.11,0-1.71-1.34-1.71-2.69a8,8,0,0,1,.15-1.4,14.4,14.4,0,0,0-.21-2.19,22.83,22.83,0,0,0-.74,2.9C5.33,645.61,4.3,647,3.14,647c-.47,0-.9-.18-.9-1.16,0-1.66.69-2.61,3.35-6.14Zm1.08-.53a4.32,4.32,0,0,0,.61-1.9,1.67,1.67,0,0,0-1.22-1.68c-.5,0-.84.66-.84,1.63a3.66,3.66,0,0,0,.84,2.11l.24.35Zm.74.87-.35.69.24.4Z"/></g></g></svg>