<svg xmlns="http://www.w3.org/2000/svg" viewBox="0 0 34.82 103.67"><defs><style>.cls-1{fill:#fff;}</style></defs><title>scroll_top</title><g id="レイヤー_2" data-name="レイヤー 2"><g id="レイヤー_1-2" data-name="レイヤー 1"><polygon class="cls-1" points="17.98 73.05 16.98 73.04 17.35 3.9 8.73 19.42 7.85 18.94 18.37 0 17.98 73.05"/><path class="cls-1" d="M13.57,87.29l-.65,0c0-2.74-.91-3.73-3.31-3.73L6.37,95.27A7.36,7.36,0,0,0,6,97c0,.7.55,1.11,2,1.11v.6H0v-.6H.36a2.05,2.05,0,0,0,2.19-1.73L6.1,83.52A5.24,5.24,0,0,0,.87,87l-.61-.17.94-4.11H14.43Z"/><path class="cls-1" d="M18.92,87.65a3.45,3.45,0,0,1,3.78,3.63,8.75,8.75,0,0,1-2.53,6,5.77,5.77,0,0,1-4.2,1.8c-2.26,0-3.94-1.2-3.94-3.55a8.51,8.51,0,0,1,2.4-6,6.26,6.26,0,0,1,4.4-1.85Zm-.21.7a1.91,1.91,0,0,0-1.44.75c-1.44,1.61-2.38,5.28-2.38,7.73,0,1.06.46,1.54,1.18,1.54a2,2,0,0,0,1.7-1.18,16.74,16.74,0,0,0,2.07-7.37C19.84,88.9,19.4,88.35,18.71,88.35Z"/><path class="cls-1" d="M28.38,90.42c1.35-2.09,2.43-2.77,3.8-2.77,1.73,0,2.64,1.13,2.64,2.91,0,4.44-3.24,8.5-6.65,8.5a2.8,2.8,0,0,1-1.63-.52l-.29,1a11.92,11.92,0,0,0-.58,2.74c0,.57.36.74,1.56.77v.64h-6V103c1.15,0,1.42-.24,1.87-2.07l2.31-9.13a22.43,22.43,0,0,0,.53-2.25c0-.46-.22-.56-1.3-.61v-.64c1.25-.15,2.16-.29,4.61-.68l-.89,2.77Zm2.5-1.06c-.74,0-1.46.77-2.09,1.7a8.47,8.47,0,0,0-1.05,2.72,20.65,20.65,0,0,0-.92,3.58.89.89,0,0,0,.94.86,2.26,2.26,0,0,0,1.49-.72c1.61-1.58,2.57-5.35,2.57-6.82C31.82,89.72,31.46,89.36,30.88,89.36Z"/></g></g></svg>