<svg xmlns="http://www.w3.org/2000/svg" viewBox="0 0 58.74 130.18"><defs><style>.cls-1{fill:#fff;}</style></defs><title>scroll_down</title><g id="レイヤー_2" data-name="レイヤー 2"><g id="レイヤー_1-2" data-name="レイヤー 1"><polygon class="cls-1" points="28.58 103.04 28.97 0 29.97 0 29.6 99.16 38.23 83.62 39.1 84.11 28.58 103.04"/><path class="cls-1" d="M11.62,118.24l-.64-.09a7.52,7.52,0,0,0-.53-2.43,2.88,2.88,0,0,0-2.79-1.59,2.36,2.36,0,0,0-2.35,2.53c0,1.44.86,2.06,2.57,3.29,2.54,1.85,3.31,3,3.31,5.21a4.71,4.71,0,0,1-2.64,4.42,6.69,6.69,0,0,1-2.88.6,8.3,8.3,0,0,1-2.93-.58,3.62,3.62,0,0,0-1.11-.26c-.45,0-.62.14-.91.84H0l.86-5.41.7,0a5.44,5.44,0,0,0,1.15,3.34,3.26,3.26,0,0,0,2.55,1.2,2.77,2.77,0,0,0,2.14-.82,2.76,2.76,0,0,0,.89-2.2c0-1.42-.82-2.31-2.77-3.7S2.4,119.9,2.4,117.88a4.61,4.61,0,0,1,4.9-4.59c2.12,0,2.6.72,3.51.72a1.05,1.05,0,0,0,1-.62h.72Z"/><path class="cls-1" d="M21.61,126.77a8.82,8.82,0,0,1-2.76,2.86,4.3,4.3,0,0,1-2,.43,3.37,3.37,0,0,1-3.68-3.63,8.24,8.24,0,0,1,2.53-5.74,6.11,6.11,0,0,1,4.32-2,2.44,2.44,0,0,1,2.69,2.16,1.53,1.53,0,0,1-1.49,1.71,1.3,1.3,0,0,1-1.39-1.28c0-.72.5-.86.5-1.39,0-.24-.29-.41-.58-.41-.91,0-1.56.89-2.23,2.12a10.47,10.47,0,0,0-1.27,4.82c0,1.4.69,2.14,1.75,2.14s1.78-.58,2.93-2.18Z"/><path class="cls-1" d="M27.83,123.67c1.9-3.82,2.81-5,4.11-5a1.4,1.4,0,0,1,1.37,1.59A1.57,1.57,0,0,1,31.92,122c-.94,0-1-.91-1.47-.91s-.91.64-1.56,1.82a20.25,20.25,0,0,0-1.78,4.47l-.74,2.38H23.46c1.71-5.77,2.45-8.58,2.45-9.18,0-.45-.29-.6-1.34-.6v-.65a23.29,23.29,0,0,0,4.8-.67l-1.56,5Z"/><path class="cls-1" d="M39.91,118.65a3.45,3.45,0,0,1,3.77,3.63,8.78,8.78,0,0,1-2.52,6,5.82,5.82,0,0,1-4.2,1.8c-2.26,0-3.94-1.2-3.94-3.56a8.49,8.49,0,0,1,2.4-6,6.24,6.24,0,0,1,4.4-1.85Zm-.21.7a2,2,0,0,0-1.45.74c-1.44,1.61-2.37,5.29-2.37,7.74,0,1,.45,1.53,1.17,1.53a2,2,0,0,0,1.71-1.18,16.73,16.73,0,0,0,2.06-7.37C40.82,119.9,40.39,119.35,39.7,119.35Z"/><path class="cls-1" d="M48.58,125.52a12.63,12.63,0,0,0-.53,2.4.34.34,0,0,0,.36.36c.43,0,.94-.5,1.9-1.92l.53.34c-1.66,2.52-2.52,3.26-4.06,3.26a1.5,1.5,0,0,1-1.63-1.51,20.33,20.33,0,0,1,.81-3.72l1.78-6.22a18.42,18.42,0,0,0,.82-3.49c0-.48-.36-.72-1-.72a4.1,4.1,0,0,0-.53,0v-.65a50.43,50.43,0,0,0,5-.72Z"/><path class="cls-1" d="M55.26,125.52a12.63,12.63,0,0,0-.53,2.4.34.34,0,0,0,.36.36c.43,0,.93-.5,1.9-1.92l.52.34C55.86,129.22,55,130,53.45,130a1.51,1.51,0,0,1-1.63-1.51,20.64,20.64,0,0,1,.82-3.72l1.78-6.22a18.12,18.12,0,0,0,.81-3.49c0-.48-.36-.72-1-.72a4.18,4.18,0,0,0-.53,0v-.65a50.61,50.61,0,0,0,5.05-.72Z"/></g></g></svg>