<svg xmlns="http://www.w3.org/2000/svg" viewBox="0 0 431.31 77.36"><defs><style>.cls-1{fill:#4968ad;}</style></defs><title>share_fb</title><g id="レイヤー_2" data-name="レイヤー 2"><g id="レイヤー_1-2" data-name="レイヤー 1"><path class="cls-1" d="M428.61,76.1c-30,4.87-30.83-6-61.19-6s-30.35,6-60.7,6-30.35-6-60.7-6-30.36,6-60.71,6-30.35-6-60.71-6-30.35,6-60.71,6-30.27-1.1-60.23-6c-4.86-.79-3.48-2-3.48-6.88s6-4.92,6-9.84-6-4.92-6-9.85,6-4.92,6-9.84-6-4.93-6-9.85,6-4.93,6-9.85S-2.16,2.05,2.7,1.26c30-4.87,30.83,6,61.19,6s30.35-6,60.7-6,30.35,6,60.71,6,30.35-6,60.7-6,30.35,6,60.71,6,30.35-6,60.71-6,30.27,1.1,60.23,6c4.86.79,3.48,2,3.48,6.88s-6,4.92-6,9.84,6,4.92,6,9.85-6,4.92-6,9.84,6,4.93,6,9.85-7.08,5.78-5.91,10.56C426.9,70.89,433.47,75.32,428.61,76.1Z"/></g></g></svg>