<svg xmlns="http://www.w3.org/2000/svg" viewBox="0 0 50 50"><defs><style>.cls-1{fill:#49a0eb;}.cls-2{fill:#f1f2f2;}</style></defs><title>tw_btn</title><g id="レイヤー_2" data-name="レイヤー 2"><g id="レイヤー_1-2" data-name="レイヤー 1"><path class="cls-1" d="M47.24,0H2.74A2.75,2.75,0,0,0,0,2.76v44.5A2.75,2.75,0,0,0,2.76,50H47.24A2.77,2.77,0,0,0,50,47.24V2.74A2.75,2.75,0,0,0,47.24,0Z"/><path class="cls-2" d="M44,14.84A15,15,0,0,1,39.76,16,7.48,7.48,0,0,0,43,11.91a14.72,14.72,0,0,1-4.69,1.79,7.39,7.39,0,0,0-12.78,5.06,7.15,7.15,0,0,0,.19,1.68,21,21,0,0,1-15.22-7.72,7.4,7.4,0,0,0,2.28,9.86,7.25,7.25,0,0,1-3.34-.92v.09A7.37,7.37,0,0,0,15.37,29a7.34,7.34,0,0,1-1.95.26A7,7,0,0,1,12,29.12a7.37,7.37,0,0,0,6.89,5.13A15,15,0,0,1,8,37.31a20.87,20.87,0,0,0,11.32,3.32c13.59,0,21-11.26,21-21,0-.32,0-.64,0-.95A14.89,14.89,0,0,0,44,14.84Z"/></g></g></svg>